<?xml version="1.0" encoding="UTF-8"?>
<svg version="1.1" xmlns="http://www.w3.org/2000/svg" width="200" height="200">
<path d="M0 0 C2.41210933 1.90527041 4.70314398 3.89024002 6.984375 5.94921875 C7.665 6.48933594 8.345625 7.02945313 9.046875 7.5859375 C20.89297665 17.14148434 32.27129944 34.65733834 34.984375 49.94921875 C35.44729718 55.87462259 33.19629517 60.10620028 29.79296875 64.83984375 C25.44526263 69.91060251 20.04170252 73.22342137 13.984375 75.94921875 C15.25009733 77.10069536 16.52215406 78.24521189 17.796875 79.38671875 C18.85841797 80.34384766 18.85841797 80.34384766 19.94140625 81.3203125 C24.12932803 84.65943942 28.86991893 84.44279355 33.984375 83.94921875 C36.53144315 83.1846018 38.59037412 82.16968979 40.984375 80.94921875 C41.78875 80.55734375 42.593125 80.16546875 43.421875 79.76171875 C44.1953125 79.35953125 44.1953125 79.35953125 44.984375 78.94921875 C50.57598974 85.47276928 51.88967735 91.48561608 51.984375 99.94921875 C51.55049093 103.63120721 50.73446156 106.80622971 48.671875 109.94921875 C46.39704154 111.29726821 44.58573042 111.0171171 41.984375 110.94921875 C41.60925781 110.00820312 41.23414063 109.0671875 40.84765625 108.09765625 C37.23732787 98.66558522 37.23732787 98.66558522 30.984375 90.94921875 C27.80874698 89.98623151 27.80874698 89.98623151 24.984375 89.94921875 C25.314375 90.71234375 25.644375 91.47546875 25.984375 92.26171875 C27.73550497 98.71901051 28.16056142 105.22329459 25.234375 111.38671875 C23.49871187 114.35257119 21.79517908 116.9049976 18.984375 118.94921875 C16.359375 119.32421875 16.359375 119.32421875 13.984375 118.94921875 C11.22799627 116.19284002 11.16559822 113.74960545 10.421875 109.94921875 C9.6110967 105.31192715 9.6110967 105.31192715 7.984375 100.94921875 C7.75363281 101.60148437 7.52289063 102.25375 7.28515625 102.92578125 C4.77193617 109.66081371 2.33849046 114.30123286 -3.390625 118.82421875 C-6.74697768 120.26265561 -9.40213301 120.22717967 -13.015625 119.94921875 C-13.345625 119.61921875 -13.675625 119.28921875 -14.015625 118.94921875 C-13.924709 116.24813371 -13.77821734 113.57991564 -13.578125 110.88671875 C-13.52591797 110.12810547 -13.47371094 109.36949219 -13.41992188 108.58789062 C-13.28986665 106.70800153 -13.15334462 104.8285619 -13.015625 102.94921875 C-13.428125 103.46871094 -13.840625 103.98820312 -14.265625 104.5234375 C-20.07309447 111.5364754 -25.84908511 116.14375815 -34.96484375 117.796875 C-37.85772709 118.01177491 -39.62434957 117.59322061 -42.015625 115.94921875 C-42.81640625 114.09765625 -42.81640625 114.09765625 -43.015625 111.94921875 C-41.7289158 109.85886524 -40.182748 108.17617968 -38.55859375 106.33984375 C-36.40639751 103.00530172 -35.84638092 99.82337807 -35.015625 95.94921875 C-36.04300781 96.46871094 -37.07039063 96.98820312 -38.12890625 97.5234375 C-41.74308502 99.34628638 -45.36662597 101.14966431 -48.99462891 102.94482422 C-50.65647385 103.77072783 -52.31162259 104.61009169 -53.96484375 105.453125 C-66.16684942 111.41398229 -82.58517121 116.2804108 -96 111.99609375 C-99.87990468 110.1824105 -102.54177122 108.48542172 -105.390625 105.26171875 C-108.94025525 102.13466353 -111.9561451 102.20121177 -116.5546875 101.59375 C-125.98834202 99.83691818 -136.11086916 95.73140496 -143.015625 88.94921875 C-145.09216895 84.79613085 -144.72735555 80.44299194 -144.015625 75.94921875 C-142.253784 71.08299569 -139.64263624 66.58312084 -137.15332031 62.06054688 C-135.65100271 59.27255489 -134.27548387 56.43017887 -132.89575195 53.58007812 C-121.17903359 29.46930863 -121.17903359 29.46930863 -110.09375 25.2109375 C-107.08744052 23.38567817 -106.04172866 20.99562526 -104.328125 17.94921875 C-94.61488541 1.53797618 -81.20715033 -7.84656455 -63.015625 -13.05078125 C-41.39255362 -17.95674439 -18.13608795 -12.3334795 0 0 Z M2.30859375 80.44921875 C1.87160156 80.94421875 1.43460938 81.43921875 0.984375 81.94921875 C1.42007813 82.48289062 1.85578125 83.0165625 2.3046875 83.56640625 C9.4640127 92.52331093 14.53456621 100.64571503 16.984375 111.94921875 C19.66817538 109.74028563 20.87038882 108.52936908 21.55078125 105.06640625 C21.54043749 96.48108774 20.23795503 89.88702076 14.52734375 83.2578125 C11.20386751 80.17987012 6.24279461 76.9276963 2.30859375 80.44921875 Z M-7.578125 85.94921875 C-8.7125 86.60921875 -9.846875 87.26921875 -11.015625 87.94921875 C-10.54125 88.91859375 -10.066875 89.88796875 -9.578125 90.88671875 C-6.90892246 97.82412725 -7.25748758 105.60994035 -7.015625 112.94921875 C-2.93204837 111.21627237 -1.59657104 109.38449404 0.21875 105.4296875 C1.89140545 100.01062519 2.15669564 93.95581695 0.078125 88.625 C-1.0784035 86.50494342 -1.0784035 86.50494342 -3.015625 83.94921875 C-4.75768808 83.94921875 -6.10157592 85.09013565 -7.578125 85.94921875 Z M36.984375 89.94921875 C37.92038746 91.36686869 38.8582542 92.78329443 39.796875 94.19921875 C40.57998047 95.38257813 40.57998047 95.38257813 41.37890625 96.58984375 C42.85571622 98.76014356 44.39127373 100.86335643 45.984375 102.94921875 C46.18850861 97.21079624 46.25578954 92.34382828 43.984375 86.94921875 C40.46721197 86.94921875 39.61315752 87.7736746 36.984375 89.94921875 Z M-29.015625 95.94921875 C-30.87201704 99.16446836 -31.35772578 102.33077304 -32.015625 105.94921875 C-32.95931183 107.97639787 -33.93406997 109.99211918 -35.015625 111.94921875 C-28.06788601 109.95117616 -23.45078684 107.92552767 -18.765625 102.19921875 C-16.63261434 98.23791325 -16.32304361 95.40678858 -16.015625 90.94921875 C-20.44037019 90.94921875 -25.37156229 93.68617013 -29.015625 95.94921875 Z " fill="#02859F" transform="translate(144.015625,47.05078125)"/>
<path d="M0 0 C0.97582031 0.49113281 1.95164062 0.98226562 2.95703125 1.48828125 C12.22752219 6.47459153 21.05223544 13.49380317 26 23 C26 23.66 26 24.32 26 25 C24.65421875 25.29390625 24.65421875 25.29390625 23.28125 25.59375 C4.55806388 30.08112519 -11.43338649 40.4885689 -28 50 C-30.5737684 47.56476551 -31.61518772 45.74731951 -32.75 42.375 C-36.86445155 31.68365999 -44.48067262 24.37617369 -54.8125 19.6875 C-58.9604577 17.94756022 -62.36057431 16.87491257 -66.88671875 16.90234375 C-67.82451172 16.90556641 -68.76230469 16.90878906 -69.72851562 16.91210938 C-70.70498047 16.92048828 -71.68144531 16.92886719 -72.6875 16.9375 C-73.67556641 16.94201172 -74.66363281 16.94652344 -75.68164062 16.95117188 C-78.12115474 16.96295697 -80.56054689 16.97940989 -83 17 C-79.01181169 5.3677841 -67.49488102 -0.51109433 -57.1171875 -5.7734375 C-38.31659942 -13.17116264 -17.40494922 -9.07090054 0 0 Z " fill="#A1CE55" transform="translate(132,50)"/>
<path d="M0 0 C5.34131393 6.88601447 8.30908024 14.79673362 7.8359375 23.52734375 C6.52311256 29.7676383 2.53812534 32.64079495 -2.41796875 36.26171875 C-11.05665884 41.7239464 -20.38409488 44.74452359 -30.04516602 47.94580078 C-41.42640427 51.75796711 -51.84020845 56.51077944 -61.75 63.3125 C-62.41 62.9825 -63.07 62.6525 -63.75 62.3125 C-63.316875 61.45011719 -62.88375 60.58773437 -62.4375 59.69921875 C-57.02369302 48.13196974 -55.70594892 35.84090859 -58.75 23.3125 C-58.05648437 23.05509033 -57.36296875 22.79768066 -56.6484375 22.5324707 C-53.40413475 21.16692313 -50.43616047 19.53114954 -47.375 17.79296875 C-46.12909262 17.09276723 -44.88299229 16.39290896 -43.63671875 15.69335938 C-41.70435206 14.60460961 -39.77352974 13.5134003 -37.84619141 12.41577148 C-7.69757374 -4.72351116 -7.69757374 -4.72351116 0 0 Z " fill="#4FAB9E" transform="translate(160.75,75.6875)"/>
<path d="M0 0 C7.26820862 5.03723339 12.96145876 12.30467348 15.7109375 20.71484375 C15.9921875 23.24609375 15.9921875 23.24609375 15.7109375 25.71484375 C11.21660503 30.58050283 3.64331832 33.45735912 -2.1640625 36.58984375 C-2.91357178 36.99557617 -3.66308105 37.40130859 -4.43530273 37.81933594 C-5.14759033 38.19477539 -5.85987793 38.57021484 -6.59375 38.95703125 C-7.23296387 39.29589355 -7.87217773 39.63475586 -8.53076172 39.98388672 C-10.2890625 40.71484375 -10.2890625 40.71484375 -13.2890625 40.71484375 C-13.43601563 40.16957031 -13.58296875 39.62429687 -13.734375 39.0625 C-15.81518327 32.06667908 -18.47854111 25.24315178 -24.76171875 21.07421875 C-33.51032864 16.59039513 -42.87681455 14.92879679 -52.5390625 17.71484375 C-53.4465625 18.04484375 -54.3540625 18.37484375 -55.2890625 18.71484375 C-53.57452405 11.09467285 -48.27605608 5.91047913 -42.1015625 1.46484375 C-28.56352027 -6.94758996 -14.01488035 -7.86842259 0 0 Z " fill="#A1CE55" transform="translate(78.2890625,78.28515625)"/>
<path d="M0 0 C5.41163985 3.07828097 9.23585778 7.78624227 11.75 13.4375 C12.5 16.6875 12.5 16.6875 11.75 20.4375 C5.69662145 27.02357587 -1.66306396 31.35705974 -10.625 31.875 C-15.94325409 31.71721585 -20.48805525 29.66438022 -25.25 27.4375 C-25.58 27.7675 -25.91 28.0975 -26.25 28.4375 C-28.26964199 28.50994053 -30.29167124 28.52127188 -32.3125 28.5 C-33.41722656 28.49097656 -34.52195312 28.48195312 -35.66015625 28.47265625 C-36.94212891 28.45525391 -36.94212891 28.45525391 -38.25 28.4375 C-37.92293917 19.60685753 -33.91070766 13.06795148 -28 6.625 C-20.10443236 -0.69792207 -10.30570213 -4.50629561 0 0 Z " fill="#A0CE55" transform="translate(46.25,101.5625)"/>
<path d="M0 0 C3.95342455 6.36676001 2.80431743 15.47818291 1.1953125 22.5234375 C-2.25800435 32.54996437 -8.62778788 40.83697965 -17.98046875 46.0390625 C-25.23996064 49.49328881 -31.91919307 50.97268972 -40 50 C-43.6875 48.5 -43.6875 48.5 -46 47 C-45.319375 46.46375 -44.63875 45.9275 -43.9375 45.375 C-42.968125 44.59125 -41.99875 43.8075 -41 43 C-40.4225 42.56429687 -39.845 42.12859375 -39.25 41.6796875 C-34.76667267 38.14326983 -31.59412158 34.57942554 -30 29 C-30.0696081 27.16609426 -30.15367569 25.3326967 -30.25 23.5 C-30.09765625 20.671875 -30.09765625 20.671875 -29 18 C-24.64201159 14.9488747 -20.00949006 12.97281768 -15.11816406 10.92626953 C-11.96497456 9.54738514 -9.04406735 7.90818766 -6.0625 6.1875 C-5.10472656 5.64480469 -4.14695313 5.10210937 -3.16015625 4.54296875 C-0.71103576 3.11339345 -0.71103576 3.11339345 0 0 Z " fill="#4EAA9F" transform="translate(94,101)"/>
<path d="M0 0 C1.21973511 -0.00193359 1.21973511 -0.00193359 2.46411133 -0.00390625 C10.36504048 0.1318512 17.40027345 1.8722515 24.875 4.375 C24.875 4.705 24.875 5.035 24.875 5.375 C24.09898438 5.51035156 23.32296875 5.64570312 22.5234375 5.78515625 C8.36608626 8.60648997 -5.46839564 15.0384108 -14.6875 26.5 C-15.491875 27.11875 -16.29625 27.7375 -17.125 28.375 C-18.94287109 28.125 -18.94287109 28.125 -21.0859375 27.5 C-26.49814476 26.14980876 -31.6363019 26.14956079 -37.1875 26.25 C-38.14849609 26.25902344 -39.10949219 26.26804687 -40.09960938 26.27734375 C-42.44167805 26.30064792 -44.78319792 26.33335942 -47.125 26.375 C-43.13681169 14.7427841 -31.61988102 8.86390567 -21.2421875 3.6015625 C-14.29903375 0.86954461 -7.4251933 -0.01241023 0 0 Z " fill="#F2F4EC" transform="translate(96.125,40.625)"/>
<path d="M0 0 C-2.30606593 4.01633976 -4.64764114 8.01061949 -7 12 C-7.60972656 13.05960938 -8.21945313 14.11921875 -8.84765625 15.2109375 C-9.43417969 16.19320312 -10.02070312 17.17546875 -10.625 18.1875 C-11.15351562 19.08855469 -11.68203125 19.98960938 -12.2265625 20.91796875 C-14 23 -14 23 -16.45703125 23.91796875 C-19.32337637 24.0104315 -20.60139148 23.54392936 -23.0625 22.125 C-29.89825111 18.25366373 -37.65552009 17.97393124 -45.33984375 19.44921875 C-46.91289369 19.90279757 -48.46142875 20.44051955 -50 21 C-48.28546155 13.3798291 -42.98699358 8.19563538 -36.8125 3.75 C-25.03773213 -3.5667488 -12.84134654 -5.32678079 0 0 Z " fill="#F1F4EB" transform="translate(73,76)"/>
<path d="M0 0 C0.78375 0.495 1.5675 0.99 2.375 1.5 C1.81425781 1.77457031 1.25351562 2.04914063 0.67578125 2.33203125 C-9.57832563 7.53742676 -16.70147665 12.48201714 -21.8125 22.9375 C-23.515625 26.07421875 -23.515625 26.07421875 -25.625 28.5 C-29.79342916 29.53163385 -33.42277647 29.24522191 -37.625 28.5 C-37.29793917 19.66935753 -33.28570766 13.13045148 -27.375 6.6875 C-19.55460871 -0.56569807 -10.20888849 -4.22436765 0 0 Z " fill="#F0F4EB" transform="translate(45.625,101.5)"/>
<path d="M0 0 C0.10904433 6.72959285 -1.49494321 10.4203471 -6.015625 15.37109375 C-12.1627214 20.41703705 -20.28883517 19.69736062 -27.82714844 19.24707031 C-36.10219981 18.30613189 -43.69085713 14.2820731 -50 9 C-50 8.67 -50 8.34 -50 8 C-49.15695313 7.93941406 -48.31390625 7.87882813 -47.4453125 7.81640625 C-46.34960938 7.73261719 -45.25390625 7.64882812 -44.125 7.5625 C-43.03445312 7.48128906 -41.94390625 7.40007812 -40.8203125 7.31640625 C-38.05271029 7.16998297 -38.05271029 7.16998297 -36 6 C-34.15234375 6.77734375 -34.15234375 6.77734375 -31.9375 7.9375 C-26.33401167 10.51062184 -21.66424482 11.11493261 -15.71484375 9.3046875 C-10.77588368 7.28843965 -6.68146814 4.49863716 -2.53125 1.171875 C-1 0 -1 0 0 0 Z " fill="#4FAB9F" transform="translate(58,122)"/>
<path d="M0 0 C1.75 0.8125 1.75 0.8125 2.75 2.8125 C3.0625 6.25 3.0625 6.25 2.75 9.8125 C1.0625 11.8125 1.0625 11.8125 -1.25 12.8125 C-3.875 12.6875 -3.875 12.6875 -6.25 11.8125 C-8.25 8.8125 -8.25 8.8125 -8.1875 5.8125 C-7.25 2.8125 -7.25 2.8125 -4.9375 0.875 C-2.25 -0.1875 -2.25 -0.1875 0 0 Z " fill="#00869F" transform="translate(197.25,113.1875)"/>
<path d="M0 0 C0.99 0.103125 1.98 0.20625 3 0.3125 C5.15502531 3.54503796 5.46856135 4.56400923 5 8.3125 C3.875 10.125 3.875 10.125 2 11.3125 C-1 11.75 -1 11.75 -4 11.3125 C-6 9.625 -6 9.625 -7 7.3125 C-5.86981767 2.99725837 -4.65491601 0.48488708 0 0 Z " fill="#00869F" transform="translate(181,115.6875)"/>
<path d="M0 0 C0 3 0 3 -1.96875 5.26171875 C-2.8040625 6.06222656 -3.639375 6.86273438 -4.5 7.6875 C-5.3353125 8.49574219 -6.170625 9.30398437 -7.03125 10.13671875 C-7.6809375 10.75160156 -8.330625 11.36648437 -9 12 C-9.66 11.34 -10.32 10.68 -11 10 C-9.54474941 8.51780033 -8.085701 7.03932861 -6.625 5.5625 C-5.81289063 4.73878906 -5.00078125 3.91507812 -4.1640625 3.06640625 C-2 1 -2 1 0 0 Z " fill="#9BCB4B" transform="translate(37,108)"/>
<path d="M0 0 C4.62 0.66 9.24 1.32 14 2 C14 2.33 14 2.66 14 3 C9.05 3.33 4.1 3.66 -1 4 C-0.67 2.68 -0.34 1.36 0 0 Z " fill="#B7DADC" transform="translate(50,63)"/>
</svg>
