<?xml version="1.0" encoding="UTF-8"?>
<svg version="1.1" xmlns="http://www.w3.org/2000/svg" width="7256" height="3839">
<path d="M0 0 C0.66266624 -0.00029457 1.32533249 -0.00058914 2.00807953 -0.00089264 C84.84765855 -0.0068232 166.38524857 16.74555866 316.51220703 73.92773438 C319.37686813 75.28039388 322.24864189 76.61710088 325.12109375 77.953125 C337.50942317 83.75330907 349.58196419 90.00705604 361.51806641 96.68652344 C364.38646895 98.29138539 367.26145353 99.88403425 370.13671875 101.4765625 C404.60508501 120.6591323 437.15517438 143.10019127 468.3125 167.25 C468.93108887 167.72679199 469.54967773 168.20358398 470.18701172 168.69482422 C478.53666837 175.13341236 486.61080331 181.8343674 494.57128906 188.74707031 C496.28503755 190.22629573 498.01093278 191.6897591 499.7421875 193.1484375 C510.22490576 201.99932067 520.36559225 211.24402295 530.03515625 220.98046875 C532.38315725 223.34234956 534.76680057 225.59932289 537.3125 227.75 C542.45552253 232.19935861 547.19206348 236.9045505 551.625 242.0625 C554.38868029 245.27333755 557.29869596 248.27267165 560.3125 251.25 C563.88333512 254.78313399 567.27801225 258.38373095 570.54296875 262.19921875 C572.55036023 264.52566583 574.61716638 266.79192686 576.6875 269.0625 C580.51286325 273.30576008 584.1634409 277.65859497 587.75390625 282.1015625 C589.63512409 284.42811454 591.54379752 286.72966809 593.46484375 289.0234375 C602.47927757 299.81238647 610.98787553 310.92213136 619.3125 322.25 C619.88387695 323.02520996 620.45525391 323.80041992 621.04394531 324.59912109 C664.80631513 384.09613287 697.98032814 449.43531389 725.33734131 517.81732178 C726.23183265 520.04876332 727.13121376 522.27812631 728.03369141 524.50634766 C746.48506806 570.06716406 765.08164289 621.91552091 744.7109375 670.1953125 C743.03825882 673.94610895 741.19003302 677.59864344 739.3125 681.25 C738.69896683 682.48424981 738.08568709 683.71862562 737.47265625 684.953125 C730.11336962 699.49842657 720.42050033 712.51590154 710.3125 725.25 C709.58546875 726.17167969 708.8584375 727.09335938 708.109375 728.04296875 C699.30714589 739.01409245 689.59327807 749.06549605 679.69564819 759.04208374 C678.29220612 760.45743571 676.89274342 761.8767301 675.4934082 763.29614258 C669.41271955 769.38448333 663.05954749 774.9144659 656.3125 780.25 C655.21679695 781.14243052 654.1216132 782.03549973 653.02734375 782.9296875 C641.52833671 792.01891669 629.36578439 799.78676239 615.81640625 805.44921875 C614.92107681 805.82806213 614.02574738 806.20690552 613.10328674 806.597229 C601.71553071 811.38702379 590.23116094 815.94005773 578.75 820.5 C575.4477422 821.81381975 572.14580718 823.12844249 568.84425354 824.44403076 C566.81553173 825.25220124 564.78638323 826.05930191 562.75669861 826.86505127 C555.91169255 829.5887248 549.10545575 832.39909476 542.3125 835.25 C544.43350701 837.43194906 546.33029951 838.96910164 549.015625 840.4140625 C549.74104492 840.80899902 550.46646484 841.20393555 551.21386719 841.61083984 C551.98891602 842.0280127 552.76396484 842.44518555 553.5625 842.875 C555.19875701 843.77451473 556.83416161 844.67558163 558.46875 845.578125 C559.28601562 846.02865234 560.10328125 846.47917969 560.9453125 846.94335938 C561.72648437 847.37455078 562.50765625 847.80574219 563.3125 848.25 C564.00085937 848.62962891 564.68921875 849.00925781 565.3984375 849.40039062 C580.87843113 858.02629069 593.71766763 869.51569219 605.26953125 882.91796875 C609.83704935 888.13175136 614.5753641 893.19066616 619.3125 898.25 C620.03824219 899.03117187 620.76398438 899.81234375 621.51171875 900.6171875 C641.08600768 921.02526967 671.83960089 926.9267767 699.1015625 927.53515625 C739.30214849 928.21684721 785.93434459 922.59009284 816.83984375 893.82861328 C819.19830125 891.50690893 821.4870334 889.12359175 823.78125 886.73828125 C829.73383116 880.88674699 836.20379026 876.73195375 844.625 875.9375 C854.42152409 876.76771391 861.95619912 881.06249793 868.33691406 888.46850586 C872.73014727 894.65388721 875.55338561 901.78131351 878.625 908.6875 C879.37832761 910.35842324 880.13207485 912.02915734 880.88623047 913.69970703 C908.57175041 975.3127689 925.89946459 1051.1470343 901.0078125 1117.13671875 C896.4473104 1128.47336241 890.93501295 1138.65127999 883.3125 1148.25 C882.89613281 1148.83007812 882.47976563 1149.41015625 882.05078125 1150.0078125 C877.01543028 1156.75694958 869.11810185 1161.44031584 861.3125 1164.25 C849.80555474 1165.5520091 840.10116341 1164.29083799 830.875 1157 C824.02120067 1151.21934253 822.86435412 1140.05924987 820.6875 1131.8125 C815.05921904 1110.90560326 807.78869702 1090.72864919 798.3125 1071.25 C797.8489209 1070.29158203 797.3853418 1069.33316406 796.90771484 1068.34570312 C786.60626388 1047.26334986 774.19835676 1027.4162125 759.3125 1009.25 C758.69012451 1008.48550537 758.69012451 1008.48550537 758.05517578 1007.70556641 C752.70390039 1001.15753299 747.11058043 994.83828096 741.375 988.625 C740.85067383 988.05217285 740.32634766 987.4793457 739.78613281 986.88916016 C738.66716996 985.69123146 737.5273685 984.51254107 736.37109375 983.35058594 C734.79500308 981.74234541 733.28256679 980.07150333 731.80078125 978.37597656 C727.20811181 973.3746722 723.28255782 969.77404825 716.317276 969.13523865 C712.59741675 969.00865791 708.90543342 969.11189384 705.1875 969.25 C702.00259658 969.28521887 698.81788546 969.2830286 695.6328125 969.28515625 C694.84455078 969.2911232 694.05628906 969.29709015 693.24414062 969.30323792 C685.76752641 969.33412303 678.48114032 968.64203102 671.0625 967.6875 C669.96276855 967.54763672 668.86303711 967.40777344 667.72998047 967.26367188 C665.25529147 966.93936055 662.78320358 966.60319498 660.3125 966.25 C660.47830566 966.80220215 660.64411133 967.3544043 660.81494141 967.92333984 C661.33443332 969.65416219 661.853417 971.38513711 662.37207031 973.11621094 C663.02031717 975.27636064 663.67084473 977.43582678 664.32324219 979.59472656 C681.51979889 1036.68229673 690.75248848 1099.07896998 668.3125 1156.25 C667.88179199 1157.34852295 667.88179199 1157.34852295 667.44238281 1158.46923828 C660.43006358 1175.96213193 650.91707596 1191.27579295 638.3125 1205.25 C637.16618386 1206.62459752 636.02028772 1207.9995455 634.875 1209.375 C622.51068319 1223.32148058 606.02248646 1238.16655266 586.6875 1239.5 C576.66016343 1239.33036461 565.05341813 1235.33312573 557.8125 1228.25 C555.45821705 1225.06534602 554.80591487 1222.39352543 554.265625 1218.4921875 C554.10449219 1217.33557617 553.94335938 1216.17896484 553.77734375 1214.98730469 C553.13980176 1209.86152068 552.56985037 1204.72957343 552.02026367 1199.59375 C545.98164985 1143.4735498 530.99206723 1085.53720838 497.3125 1039.25 C497.21545776 1040.45438721 497.21545776 1040.45438721 497.11645508 1041.68310547 C493.77666823 1082.00708987 485.56713194 1120.32066709 466.3125 1156.25 C465.83345215 1157.15008789 465.83345215 1157.15008789 465.34472656 1158.06835938 C444.63454663 1196.62924262 408.67045478 1233.25135836 366.5546875 1247.5234375 C351.93115141 1251.90118397 336.37853582 1253.56721612 322.0625 1247.125 C315.79547295 1243.73741781 310.18688877 1238.20320454 307.74511719 1231.35961914 C305.32660279 1219.56594933 308.6134487 1207.85182016 311.30151367 1196.42001343 C312.49581469 1191.32038776 313.63116705 1186.20783207 314.76171875 1181.09375 C314.98640839 1180.07774216 315.21109802 1179.06173431 315.44259644 1178.01493835 C323.94713147 1139.09021479 328.69170041 1096.73869409 321.3125 1057.25 C321.02640869 1057.86294922 320.74031738 1058.47589844 320.44555664 1059.10742188 C301.28755543 1100.01658159 275.64296991 1138.46500352 239.3125 1166.25 C238.05116549 1167.25014564 236.79082541 1168.25154612 235.53125 1169.25390625 C204.87883375 1193.43300666 170.22944538 1210.01217609 132.3125 1219.25 C131.54566895 1219.44207031 130.77883789 1219.63414063 129.98876953 1219.83203125 C105.22990612 1225.83695809 76.62353729 1224.03995661 54.4375 1211 C47.38655986 1206.27535544 42.52369086 1200.51125473 40.3125 1192.25 C39.52457183 1185.10058858 39.0675025 1178.13622526 43.5546875 1172.1875 C48.03988169 1167.24381929 52.5838325 1162.37601701 57.859375 1158.265625 C62.36760409 1154.56141129 65.72435854 1149.82208173 69.3125 1145.25 C70.02535156 1144.3528125 70.73820312 1143.455625 71.47265625 1142.53125 C94.32692385 1112.99905666 122.20304221 1068.41475538 117.3125 1029.25 C116.23191853 1025.59696159 114.95889532 1022.20276285 113.40625 1018.7265625 C112.3125 1016.25 112.3125 1016.25 112.3125 1014.25 C92.21778571 1023.5809137 72.26144386 1033.16852567 52.4375 1043.0625 C51.49501404 1043.53124542 50.55252808 1043.99999084 49.58148193 1044.48294067 C37.40974116 1050.5422856 25.40861744 1056.85606375 13.49560547 1063.40893555 C6.8324458 1067.0721617 0.11034593 1070.62085525 -6.61862183 1074.16125488 C-16.82831515 1079.53409602 -27.01648176 1084.93851021 -37.125 1090.5 C-117.84805198 1134.76525788 -206.48776319 1162.33317851 -310.75 1179.0625 C-311.41604248 1179.16204987 -312.08208496 1179.26159973 -312.76831055 1179.36416626 C-331.01531027 1182.06347205 -349.04963473 1183.64140993 -367.5 1183.5625 C-368.4157077 1183.56034485 -369.33141541 1183.5581897 -370.27487183 1183.55596924 C-384.26344978 1183.50331022 -397.93934556 1183.05507716 -411.6875 1180.25 C-412.67347168 1180.05132324 -413.65944336 1179.85264648 -414.67529297 1179.64794922 C-452.82688889 1171.71084768 -488.59274253 1155.79153031 -519.6875 1132.25 C-520.81630768 1131.4087219 -521.94521534 1130.56757792 -523.07421875 1129.7265625 C-529.01673911 1125.2619569 -534.71438395 1120.60036763 -540.17578125 1115.55078125 C-542.21592384 1113.68197256 -544.28548706 1111.87343233 -546.3828125 1110.0703125 C-551.2119229 1105.85605204 -555.73030419 1101.3538384 -560.25 1096.8125 C-561.06146484 1096.00490234 -561.87292969 1095.19730469 -562.70898438 1094.36523438 C-563.9068457 1093.16543945 -563.9068457 1093.16543945 -565.12890625 1091.94140625 C-566.30839844 1090.77037354 -566.30839844 1090.77037354 -567.51171875 1089.57568359 C-569.6875 1087.25 -569.6875 1087.25 -571.34765625 1084.89697266 C-573.79476953 1081.45495488 -575.38453919 1079.54145033 -579.6027832 1078.59790039 C-583.27782993 1078.37315684 -586.88194577 1078.40200183 -590.5625 1078.5 C-593.35844712 1078.50313968 -596.1535375 1078.47006425 -598.94921875 1078.43359375 C-600.02726524 1078.42340462 -600.02726524 1078.42340462 -601.12709045 1078.41300964 C-623.86352003 1078.09454919 -646.6869346 1073.62196528 -668.6875 1068.25 C-670.24815186 1067.87367432 -670.24815186 1067.87367432 -671.84033203 1067.48974609 C-711.88040687 1057.68620077 -750.34318211 1042.52268897 -787.6875 1025.25 C-788.7280957 1024.77030762 -789.76869141 1024.29061523 -790.84082031 1023.79638672 C-805.11735807 1017.18602096 -818.97272157 1009.9535263 -832.6875 1002.25 C-834.07775391 1001.47342041 -834.07775391 1001.47342041 -835.49609375 1000.68115234 C-858.8597847 987.60996117 -881.01371495 974.10498887 -894.6875 950.25 C-895.21214844 949.33734375 -895.73679687 948.4246875 -896.27734375 947.484375 C-913.91572051 914.63121523 -908.95603443 875.22223914 -898.68994141 840.91650391 C-893.73338453 825.25508063 -887.55938888 810.15795066 -880.6875 795.25 C-880.01726807 793.78409424 -880.01726807 793.78409424 -879.33349609 792.28857422 C-867.22388525 765.94643309 -852.7838922 740.97214705 -837.6875 716.25 C-836.44233616 714.20335138 -835.19754389 712.15647665 -833.953125 710.109375 C-831.58221328 706.21133389 -829.20984882 702.3141838 -826.8359375 698.41796875 C-826.02721191 697.09031494 -826.02721191 697.09031494 -825.20214844 695.73583984 C-824.2580308 694.18635471 -823.31345048 692.63715128 -822.36816406 691.08837891 C-821.97081055 690.43659668 -821.57345703 689.78481445 -821.1640625 689.11328125 C-820.83229004 688.56969971 -820.50051758 688.02611816 -820.15869141 687.46606445 C-818.31603304 684.40515915 -816.4975951 681.33023019 -814.6875 678.25 C-814.30912994 677.60649094 -813.93075989 676.96298187 -813.54092407 676.29997253 C-807.2907194 665.58153818 -802.07761611 654.71540224 -797.4694519 643.20092773 C-795.66802012 638.70424714 -793.82430582 634.22482661 -791.98828125 629.7421875 C-791.6222731 628.84566467 -791.25626495 627.94914185 -790.87916565 627.02545166 C-774.83170448 587.75889319 -756.95328041 548.40550691 -734.6875 512.25 C-734.22520996 511.49557617 -733.76291992 510.74115234 -733.28662109 509.96386719 C-717.06542119 483.58749205 -698.75414878 457.67069519 -676.46875 436.03125 C-674.55346163 434.1867041 -674.55346163 434.1867041 -672.625 431.625 C-670.36382147 428.85323277 -667.84438904 426.69338626 -665.125 424.37890625 C-662.80762678 422.35491843 -660.57626802 420.2571469 -658.34765625 418.13647461 C-650.28366409 410.50747469 -641.6068904 403.84212747 -632.6875 397.25 C-631.79659668 396.58121826 -631.79659668 396.58121826 -630.88769531 395.89892578 C-616.09184906 384.79563781 -600.08293139 375.69136361 -583.55297852 367.43408203 C-567.24964503 359.18204487 -558.56475417 346.81401704 -549.6875 331.25 C-548.78526084 329.67832537 -547.88291246 328.10671343 -546.98046875 326.53515625 C-543.28368988 320.08276823 -539.60416751 313.62052605 -535.92822266 307.15625 C-523.68260925 285.64982968 -511.02762585 264.43648485 -496.6875 244.25 C-495.93436523 243.18023926 -495.93436523 243.18023926 -495.16601562 242.08886719 C-487.42821055 231.11032087 -479.29500742 220.55880092 -470.6875 210.25 C-470.20539063 209.66879395 -469.72328125 209.08758789 -469.2265625 208.48876953 C-463.08769428 201.09287478 -456.74882419 193.90903405 -450.19580078 186.87597656 C-448.56783907 185.12100327 -446.95357837 183.3539973 -445.33984375 181.5859375 C-438.29181173 173.89950035 -431.02057916 166.62959232 -423.2578125 159.66748047 C-421.68961522 158.25190935 -420.13935536 156.81908485 -418.59375 155.37890625 C-412.16824699 149.39853109 -405.55822432 143.71682801 -398.6875 138.25 C-398.17525879 137.83814453 -397.66301758 137.42628906 -397.13525391 137.00195312 C-341.51218102 92.28833153 -277.67483439 60.09985238 -210.6875 36.25 C-209.50623535 35.82734863 -208.3249707 35.40469727 -207.10791016 34.96923828 C-176.70576617 24.18597089 -145.3506671 16.30488634 -113.6875 10.25 C-111.83995117 9.89663574 -111.83995117 9.89663574 -109.95507812 9.53613281 C-94.66287106 6.67445712 -79.33894207 4.63109249 -63.875 3 C-63.08888336 2.91682526 -62.30276672 2.83365051 -61.49282837 2.74795532 C-40.97380108 0.6054463 -20.62616649 0.00799575 0 0 Z M483.3203125 861.3828125 C482.54316895 861.85267578 481.76602539 862.32253906 480.96533203 862.80664062 C479.71405518 863.58297852 479.71405518 863.58297852 478.4375 864.375 C477.13401611 865.17067383 477.13401611 865.17067383 475.80419922 865.98242188 C463.51197309 873.52194579 451.2753285 881.19581843 439.3125 889.25 C442.7093076 893.94477474 446.28899821 898.41404917 450.0625 902.8125 C459.20211112 913.64143946 466.26693146 925.62409663 472.98828125 938.05859375 C473.7608352 939.45693891 474.53552134 940.85410855 475.3125 942.25 C475.8377124 943.2241687 475.8377124 943.2241687 476.37353516 944.21801758 C479.95549811 950.4525651 484.91460854 955.1057443 490.0625 960.0625 C496.96988357 966.84910141 503.47406336 973.51568725 509.3125 981.25 C510.30826267 982.51951186 511.30581163 983.7876237 512.3046875 985.0546875 C528.36060247 1005.55195682 542.11639692 1027.59727529 553.29980469 1051.12548828 C554.00093725 1052.5963792 554.7105015 1054.06326951 555.42675781 1055.52685547 C573.40702567 1092.36174337 584.44818215 1132.6637095 591.96972656 1172.8203125 C592.73943184 1176.8382076 593.60075296 1180.50225429 595.3125 1184.25 C615.3766464 1172.88150497 625.41531178 1152.25886871 632.3125 1131.25 C632.56837891 1130.49332031 632.82425781 1129.73664063 633.08789062 1128.95703125 C651.11101008 1074.45968324 631.70259866 1009.43902161 607.359375 960.24609375 C598.32895357 942.3127113 587.94695548 926.0243611 574.3125 911.25 C573.56613281 910.43273438 572.81976562 909.61546875 572.05078125 908.7734375 C551.12956195 886.88543358 520.078731 868.28334795 491.3125 859.25 C487.32041191 859.25 486.51340504 859.4316893 483.3203125 861.3828125 Z M399.3125 912.25 C385.28347902 919.97314586 371.30985911 927.76549884 357.5 935.87597656 C349.3046904 940.68567391 341.0661826 945.41646697 332.8125 950.125 C332.18288361 950.48423553 331.55326721 950.84347107 330.90457153 951.21359253 C327.37473135 953.22722238 323.84401313 955.23930575 320.3125 957.25 C322.67791116 959.61541116 324.46280118 960.08947616 327.625 961.125 C336.54089078 964.32914825 340.04317036 968.98187249 344.3125 977.25 C346.3855356 982.34195379 348.12226451 987.52054129 349.8125 992.75 C350.049617 993.4734259 350.28673401 994.19685181 350.53103638 994.94219971 C370.89997983 1057.26058162 368.1785707 1119.6750083 359.29443359 1183.62841797 C359.16396133 1184.57036011 359.03348907 1185.51230225 358.89906311 1186.48278809 C358.65226176 1188.2568446 358.4029185 1190.03054999 358.15061951 1191.80383301 C358.04008743 1192.59608276 357.92955536 1193.38833252 357.81567383 1194.20458984 C357.71813309 1194.8925766 357.62059235 1195.58056335 357.52009583 1196.28939819 C357.24230325 1198.58436706 357.24230325 1198.58436706 357.3125 1202.25 C371.79004547 1197.82333543 382.90063748 1187.50257139 393.8515625 1177.484375 C395.47161196 1176.01347295 397.11205062 1174.56467089 398.7734375 1173.140625 C410.03900437 1163.40319496 418.78237725 1152.03719914 426.3125 1139.25 C426.6537793 1138.67588379 426.99505859 1138.10176758 427.34667969 1137.51025391 C453.41136624 1093.05063307 459.21161221 1037.81179117 447.1015625 988.26416016 C440.10521632 961.53863727 426.29562439 928.8958002 401.6262207 913.58251953 C400.86269287 913.14278809 400.09916504 912.70305664 399.3125 912.25 Z M832.5546875 934.9609375 C814.19187368 945.55198677 795.47890256 954.60941683 775.3125 961.25 C775.3125 965.35494717 776.86776647 966.20115324 779.6875 969.125 C785.35581552 975.15998815 790.38830716 981.6015575 795.3125 988.25 C795.81152832 988.91918457 796.31055664 989.58836914 796.82470703 990.27783203 C809.95612873 1007.93872473 821.26445203 1026.46073221 831.90820312 1045.71142578 C833.0813348 1047.83211826 834.26521461 1049.94617416 835.453125 1052.05859375 C840.0327661 1060.38084071 844.05599558 1068.95423509 848.0625 1077.5625 C848.89587891 1079.35240356 848.89587891 1079.35240356 849.74609375 1081.1784668 C852.79961346 1087.7979689 855.69883138 1094.44413935 858.3125 1101.25 C861.45870524 1099.67689738 861.59183429 1097.1480396 862.6875 1093.875 C878.27664888 1046.46865381 869.39071424 990.96448584 847.2734375 946.921875 C844.6166463 941.84185666 841.74162234 936.85198157 838.3125 932.25 C836.27282052 932.25 834.24515698 933.97414609 832.5546875 934.9609375 Z M291.40795898 972.56640625 C290.78855281 972.81410295 290.16914663 973.06179964 289.53097057 973.3170023 C287.45617889 974.14718186 285.38238645 974.97982842 283.30859375 975.8125 C281.84880252 976.39727467 280.3889524 976.98190234 278.92904663 977.56639099 C275.81932224 978.81172207 272.71001588 980.05808968 269.60098267 981.30514526 C264.75892321 983.24701306 259.91508394 985.18441463 255.07104492 987.12133789 C241.50993375 992.54551145 227.95140867 997.97426778 214.4296875 1003.49609375 C211.79013201 1004.56937178 209.1502679 1005.64188654 206.51028442 1006.71411133 C204.2219308 1007.64794441 201.93896593 1008.59409286 199.65600586 1009.54101562 C191.48058111 1012.8838492 183.36249485 1015.49435171 174.7389679 1017.45542908 C169.48058306 1018.7054843 165.22637716 1020.33612284 161.3125 1024.25 C161.08422863 1026.09894117 160.91495287 1027.95520524 160.76953125 1029.8125 C156.00995484 1085.39035146 130.71181412 1132.10235134 99.39648438 1177.43969727 C98.14125671 1179.18431267 98.14125671 1179.18431267 98.3125 1181.25 C144.12075718 1179.45359776 189.68922821 1152.9362265 223.3125 1123.25 C224.15683594 1122.528125 225.00117187 1121.80625 225.87109375 1121.0625 C230.01312769 1117.48624135 233.79071722 1113.80241651 237.31640625 1109.6171875 C238.86276364 1107.78334684 240.43112069 1105.98496732 242.02734375 1104.1953125 C249.55795304 1095.68979127 256.14406429 1086.78498636 262.3125 1077.25 C262.70002441 1076.65670898 263.08754883 1076.06341797 263.48681641 1075.45214844 C278.27462485 1052.59418359 289.62531554 1026.33152638 293.3125 999.25 C293.43431641 998.35941895 293.55613281 997.46883789 293.68164062 996.55126953 C294.47522689 990.71485081 294.47522689 990.71485081 295.22387695 984.87255859 C295.86803456 979.81571478 296.75975054 975.10817321 298.3125 970.25 C296.02772499 970.25 293.46083194 971.74362996 291.40795898 972.56640625 Z " fill="#00869F" transform="translate(1367.6875,1132.75)"/>
<path d="M0 0 C5.19165978 -0.09096354 10.3747669 -0.05716052 15.56591797 0.05029297 C16.92330078 0.07712158 16.92330078 0.07712158 18.30810547 0.10449219 C98.88106363 1.93448146 177.75471136 20.57857338 361.56591797 104.05029297 C363.03037354 104.90324951 363.03037354 104.90324951 364.52441406 105.7734375 C386.19357544 118.41176015 407.45306527 132.03499909 427.56591797 147.05029297 C428.35659668 147.6402002 429.14727539 148.23010742 429.96191406 148.83789062 C439.77005283 156.18178202 449.4719544 163.59979305 458.73779297 171.62060547 C461.42711147 173.93104208 464.17024293 176.15111377 466.94091797 178.36279297 C473.45937165 183.67202626 479.51903857 189.44953787 485.62207031 195.22412109 C487.52308045 197.01004873 489.4409863 198.77543604 491.36669922 200.53466797 C499.64812164 208.11998326 507.44177154 216.02513396 514.99951172 224.33105469 C516.44081806 225.91298724 517.8916766 227.48532719 519.34716797 229.05419922 C525.00669081 235.19408279 530.34016184 241.53937532 535.56591797 248.05029297 C536.48981246 249.18228083 537.41432087 250.31376784 538.33935547 251.44482422 C581.56591797 304.53675745 581.56591797 304.53675745 581.56591797 317.05029297 C580.58461914 317.23503174 579.60332031 317.41977051 578.59228516 317.61010742 C497.12634926 333.04084269 420.49125561 358.88253431 297.99804688 420.6953125 C294.45198274 422.67088527 290.88001465 424.59782359 287.31005859 426.52978516 C275.6256196 432.85987267 264.07556844 439.40874278 252.56591797 446.05029297 C251.02581055 446.9385376 251.02581055 446.9385376 249.45458984 447.84472656 C245.04364037 450.38904603 240.63299958 452.9338955 236.22363281 455.48095703 C228.62640968 459.86807008 221.01201475 464.22403386 213.38916016 468.56640625 C206.83724538 472.30626015 200.32450653 476.11065837 193.81591797 479.92529297 C183.51280925 485.95767874 173.1216455 491.82007726 162.69091797 497.62841797 C158.78300299 499.80575502 154.88668727 502.00118133 151.00341797 504.22216797 C129.75600798 516.36678597 108.07647365 527.71752684 86.35595703 538.98901367 C82.04874359 541.22472616 77.75380561 543.47839742 73.48388672 545.78466797 C72.69232178 546.21070313 71.90075684 546.63673828 71.08520508 547.07568359 C69.6208766 547.86590109 68.15923023 548.66111874 66.70092773 549.46240234 C61.89839994 552.05029297 61.89839994 552.05029297 58.56591797 552.05029297 C58.37594238 551.37901367 58.1859668 550.70773437 57.99023438 550.01611328 C42.6965324 496.33839607 20.459111 445.74736865 -13.43408203 401.05029297 C-13.89008789 400.44411133 -14.34609375 399.83792969 -14.81591797 399.21337891 C-22.73025194 388.70551595 -30.95060386 378.51641497 -39.87939453 368.85107422 C-41.8229842 366.72025803 -43.70938291 364.56631928 -45.58642578 362.37841797 C-50.11655862 357.18601004 -54.99060162 352.34795897 -59.87158203 347.48779297 C-60.77457031 346.5809375 -61.67755859 345.67408203 -62.60791016 344.73974609 C-67.72206418 339.63299852 -72.93758964 334.74074281 -78.43408203 330.05029297 C-79.48251926 329.12497673 -80.52947164 328.19797447 -81.57470703 327.26904297 C-91.42575533 318.61364058 -101.84583463 310.77702236 -112.43408203 303.05029297 C-113.1759375 302.50840332 -113.91779297 301.96651367 -114.68212891 301.40820312 C-125.62320013 293.45672725 -136.88627279 286.08830688 -148.43408203 279.05029297 C-149.25360352 278.5446582 -150.073125 278.03902344 -150.91748047 277.51806641 C-215.81658306 237.72978825 -303.84789338 226.15074775 -378.72460938 233.78125 C-381.27864344 234.03485836 -383.83254529 234.25068508 -386.39111328 234.45263672 C-401.22164326 235.68236807 -415.80700227 238.37341332 -430.43408203 241.05029297 C-431.37654785 241.22270508 -432.31901367 241.39511719 -433.29003906 241.57275391 C-437.6751976 242.37920057 -442.05671532 243.20239359 -446.43408203 244.05029297 C-432.4297701 206.65946997 -396.82242087 168.57770334 -366.72314453 142.99951172 C-364.86500674 141.4172408 -363.03287653 139.81439656 -361.20751953 138.19482422 C-351.95067517 130.01519893 -342.35712528 122.40411417 -332.43408203 115.05029297 C-331.69754395 114.5034082 -330.96100586 113.95652344 -330.20214844 113.39306641 C-258.46861538 60.33673338 -174.03739451 22.54035279 0 0 Z " fill="#A0CD56" transform="translate(1357.43408203125,1203.94970703125)"/>
<path d="M0 0 C3.39526497 0.01611213 6.78934029 0.0000094 10.18457031 -0.01904297 C30.66542079 -0.039681 50.98849534 1.76499092 71.02050781 6.14111328 C72.2208667 6.39787842 73.42122559 6.65464355 74.65795898 6.91918945 C133.21279372 19.78476967 186.24140341 47.73411571 229.39550781 89.39111328 C230.32242432 90.28515869 230.32242432 90.28515869 231.26806641 91.19726562 C239.18795148 98.87937582 246.59390579 106.68696524 253.39550781 115.39111328 C254.34605077 116.55468572 255.29935113 117.71600912 256.25488281 118.87548828 C263.2198619 127.36544999 269.53363009 136.10672688 275.39550781 145.39111328 C275.76208496 145.96732422 276.12866211 146.54353516 276.50634766 147.13720703 C301.34126248 186.44522833 316.73699442 230.04096498 324.64550781 275.70361328 C324.79689209 276.57252197 324.94827637 277.44143066 325.10424805 278.33666992 C328.20416195 297.48464008 328.76863868 316.58950854 328.70800781 335.95361328 C328.70585266 337.19223114 328.70369751 338.430849 328.70147705 339.70700073 C328.65194641 357.43624936 328.3906173 374.87426081 325.39550781 392.39111328 C325.19151367 393.61862305 324.98751953 394.84613281 324.77734375 396.11083984 C316.50509345 445.16569386 299.48897705 493.66025634 270.39550781 534.39111328 C269.61071045 535.4983374 269.61071045 535.4983374 268.81005859 536.62792969 C260.89899055 547.73995513 252.55762634 558.28809456 243.39550781 568.39111328 C242.83412109 569.01421387 242.27273438 569.63731445 241.69433594 570.27929688 C230.66674211 582.48663045 230.66674211 582.48663045 224.37207031 587.71923828 C222.93320705 588.93630049 221.537047 590.20439195 220.16894531 591.50048828 C176.97138672 632.42449116 118.43524855 657.30007463 60.52050781 667.64111328 C59.67931396 667.79225586 58.83812012 667.94339844 57.97143555 668.09912109 C55.11786712 668.57982489 52.26246667 668.99741731 49.39550781 669.39111328 C48.76173218 669.47831635 48.12795654 669.56551941 47.47497559 669.65536499 C33.12704813 671.56197784 18.85278745 671.75132455 4.39550781 671.70361328 C2.6352124 671.70038055 2.6352124 671.70038055 0.83935547 671.69708252 C-16.14070113 671.64700837 -32.84560033 671.39198731 -49.60449219 668.39111328 C-51.3316748 668.08512207 -51.3316748 668.08512207 -53.09375 667.77294922 C-107.73077623 657.79802575 -160.09437866 636.51585066 -203.04638672 600.68896484 C-204.62533457 599.37375225 -206.22157466 598.08180817 -207.81933594 596.78955078 C-215.41825351 590.54826175 -222.44331582 583.75647851 -229.41699219 576.82861328 C-230.288479 575.9663916 -231.15996582 575.10416992 -232.05786133 574.21582031 C-237.99589424 568.24897571 -243.3727544 561.98113239 -248.60449219 555.39111328 C-249.75400763 553.97817048 -250.90372954 552.56539562 -252.05371094 551.15283203 C-271.7028048 526.602651 -286.63342811 499.38985792 -298.60449219 470.39111328 C-298.94464355 469.56820801 -299.28479492 468.74530273 -299.63525391 467.89746094 C-311.81061101 437.92686157 -318.40120966 405.49044273 -321.60449219 373.39111328 C-321.70020508 372.47845703 -321.79591797 371.56580078 -321.89453125 370.62548828 C-322.92401018 359.40822685 -322.84822837 348.14592383 -322.85449219 336.89111328 C-322.8555043 335.25573105 -322.8555043 335.25573105 -322.85653687 333.58731079 C-322.83959434 316.32097917 -322.22529976 299.48389242 -319.60449219 282.39111328 C-319.34708252 280.67287354 -319.34708252 280.67287354 -319.08447266 278.91992188 C-311.45413154 229.36702741 -294.30809021 180.77544724 -265.60449219 139.39111328 C-265.17539551 138.76672363 -264.74629883 138.14233398 -264.30419922 137.49902344 C-258.77586502 129.48388083 -252.88907876 121.83148589 -246.60449219 114.39111328 C-245.73808005 113.33816105 -244.87221789 112.28475609 -244.00683594 111.23095703 C-233.24916242 98.26474202 -221.44248276 85.72700849 -208.12402344 75.36376953 C-206.41466131 74.02543174 -204.74542165 72.63453782 -203.11621094 71.19970703 C-164.81594474 37.55533426 -114.18432602 16.33838095 -64.72949219 6.14111328 C-63.60961914 5.90682617 -62.48974609 5.67253906 -61.3359375 5.43115234 C-41.03483097 1.45311713 -20.66437906 -0.11595839 0 0 Z M-136.54199219 178.45361328 C-154.54493858 198.11621561 -168.35090704 221.43246388 -177.60449219 246.39111328 C-177.91080566 247.21256836 -178.21711914 248.03402344 -178.53271484 248.88037109 C-200.57851682 308.99691309 -198.9540432 379.33389801 -172.73730469 437.85986328 C-162.56895225 459.78447643 -149.67061796 479.47536602 -132.96923828 496.95898438 C-131.65500752 498.33810381 -130.35788558 499.73346541 -129.06152344 501.12939453 C-102.1330793 529.28000708 -64.70237291 546.94339163 -26.60449219 553.39111328 C-25.93095703 553.50825684 -25.25742188 553.62540039 -24.56347656 553.74609375 C21.85952768 561.47178165 71.18091328 549.76667251 109.74316406 523.11767578 C112.70472894 520.95600656 115.56072716 518.71639958 118.39550781 516.39111328 C118.95044922 515.93623535 119.50539063 515.48135742 120.07714844 515.01269531 C132.42279336 504.82787854 143.46176927 493.98558952 153.07226562 481.15429688 C154.32998815 479.47841642 155.60781411 477.81961822 156.88769531 476.16064453 C181.38150631 443.80830075 194.40954533 402.46052563 198.39550781 362.39111328 C198.50765625 361.31474609 198.61980469 360.23837891 198.73535156 359.12939453 C204.23826448 296.6374109 187.27218513 231.77192484 146.91552734 183.18115234 C134.43533827 168.48395571 120.669671 155.80312673 104.39550781 145.39111328 C103.78964844 144.99714355 103.18378906 144.60317383 102.55957031 144.19726562 C25.50822429 94.6052896 -75.25584097 113.5366695 -136.54199219 178.45361328 Z " fill="#00869F" transform="translate(2768.6044921875,1645.60888671875)"/>
<path d="M0 0 C1.07701172 1.38832031 1.07701172 1.38832031 2.17578125 2.8046875 C2.81257813 3.38347656 3.449375 3.96226563 4.10546875 4.55859375 C23.68004232 22.75744428 37.84009359 48.351302 50.17578125 71.8046875 C50.87501709 73.12146484 50.87501709 73.12146484 51.58837891 74.46484375 C78.37051478 125.22294771 99.27483571 188.99003155 82.48828125 246.2421875 C73.22789143 275.91992227 52.01803737 296.90095083 28.17578125 315.8046875 C27.04838166 316.72261201 25.92214591 317.6419672 24.796875 318.5625 C-29.53371106 362.82779964 -93.38117423 392.91551469 -158.82421875 416.8046875 C-159.56418091 417.07518921 -160.30414307 417.34569092 -161.06652832 417.62438965 C-182.78327246 425.54970824 -204.71829615 432.71765194 -226.74707031 439.72216797 C-282.40409589 457.42081989 -336.97388428 477.16904132 -390.63671875 500.2421875 C-391.3916864 500.56558105 -392.14665405 500.88897461 -392.92449951 501.22216797 C-402.80841394 505.46499784 -412.46037789 510.04182461 -422.0496521 514.91152954 C-426.35378099 517.07784264 -430.71899442 519.11877205 -435.07421875 521.1796875 C-452.28525629 529.38241296 -469.22649189 537.94333365 -485.90429688 547.18652344 C-487.88852633 548.28614491 -489.87426054 549.38305457 -491.86132812 550.47753906 C-507.09276505 558.86968697 -522.06696922 567.60392589 -536.82421875 576.8046875 C-537.74299805 577.37687012 -538.66177734 577.94905273 -539.60839844 578.53857422 C-553.59095103 587.27458919 -567.26307531 596.42962049 -580.82421875 605.8046875 C-581.48421875 605.4746875 -582.14421875 605.1446875 -582.82421875 604.8046875 C-582.54449219 604.33611328 -582.26476563 603.86753906 -581.9765625 603.38476562 C-567.64741839 579.21873319 -554.93301653 554.02961061 -544.82421875 527.8046875 C-544.37739746 526.65323242 -543.93057617 525.50177734 -543.47021484 524.31542969 C-522.40626162 469.63198299 -510.61635012 411.73011954 -510.57421875 353.0546875 C-510.57354401 352.19496338 -510.57286926 351.33523926 -510.57217407 350.44946289 C-510.61848183 312.74888669 -515.53045196 275.75535128 -524.3527832 239.1159668 C-524.82421875 236.8046875 -524.82421875 236.8046875 -524.82421875 233.8046875 C-521.63746058 232.13660001 -518.44969875 230.47043859 -515.26171875 228.8046875 C-514.24464844 228.27286865 -513.22757813 227.7410498 -512.1796875 227.19311523 C-506.19990278 224.07134216 -500.2097566 220.97204814 -494.203125 217.90234375 C-481.3687409 211.33699938 -468.62009464 204.69917455 -456.11108398 197.52539062 C-449.42755739 193.69303623 -442.67735783 190.00596987 -435.88671875 186.3671875 C-426.77752495 181.47335573 -417.82024023 176.36101548 -408.91015625 171.11450195 C-401.62202721 166.82999071 -394.27358634 162.66639359 -386.88671875 158.5546875 C-380.05277061 154.74839179 -373.23830198 150.92304388 -366.51171875 146.9296875 C-349.13773145 136.61799826 -331.52129377 126.70151278 -313.87304688 116.8684082 C-309.09412679 114.20454419 -304.3258149 111.52762587 -299.59375 108.78125 C-281.87560971 98.53515372 -263.61589172 89.35048047 -245.36132812 80.10693359 C-241.7522277 78.27834869 -238.15262513 76.43228611 -234.55859375 74.57421875 C-206.530015 60.16575285 -177.24969293 48.0390069 -147.82421875 36.8046875 C-147.1759613 36.55716736 -146.52770386 36.30964722 -145.85980225 36.05462646 C-107.37391505 21.41976956 -67.45031304 10.80407242 -27.15820312 2.50830078 C-23.94854918 1.83092654 -20.7541125 1.10411614 -17.55859375 0.36328125 C-15.66812941 -0.05281392 -13.77751361 -0.46822183 -11.88671875 -0.8828125 C-11.03505127 -1.09244629 -10.18338379 -1.30208008 -9.3059082 -1.51806641 C-3.51892386 -2.73531841 -3.51892386 -2.73531841 0 0 Z " fill="#4EAB9E" transform="translate(1941.82421875,1522.1953125)"/>
<path d="M0 0 C350.5497076 0 350.5497076 0 413 59 C414.32941948 60.12962233 415.66263718 61.25479312 417 62.375 C452.07469156 93.24072857 468.38312778 141.63383214 472 187 C472.14318242 190.18025041 472.18592934 193.35585485 472.203125 196.5390625 C472.21009399 197.41480927 472.21706299 198.29055603 472.22424316 199.19284058 C472.24153351 202.00360992 472.247963 204.81417969 472.25 207.625 C472.25100708 208.58575439 472.25201416 209.54650879 472.25305176 210.53637695 C472.24261699 225.2518488 471.64972593 239.49138099 469 254 C468.86609863 254.80050781 468.73219727 255.60101562 468.59423828 256.42578125 C462.22799183 294.14482691 444.89933564 327.17055789 419 355 C418.34902344 355.71671875 417.69804687 356.4334375 417.02734375 357.171875 C395.79408159 379.59158148 366.13157126 394.11604524 337.01953125 403.1796875 C336.14800415 403.45288818 335.27647705 403.72608887 334.37854004 404.00756836 C332.25294079 404.67359432 330.12676213 405.33769872 328 406 C331.55294056 411.35502965 335.10969086 416.7075145 338.66894531 422.05834961 C339.87617839 423.87418913 341.08257812 425.690583 342.28808594 427.50756836 C348.08171183 436.23884121 353.86530754 444.94351597 360.09814453 453.36987305 C363.665184 458.30282762 366.99198761 463.40062031 370.3494873 468.47735596 C372.72578663 472.06955481 375.11086319 475.65591506 377.49609375 479.2421875 C378.00725739 480.01090179 378.51842102 480.77961609 379.04507446 481.57162476 C386.94666939 493.44162933 394.94232747 505.24860967 402.92456055 517.06445312 C408.36859601 525.1244973 413.80329467 533.18986918 419.1895752 541.28863525 C424.38514815 549.09296793 429.64345649 556.85508401 434.89181519 564.6239624 C446.80056043 582.25482757 458.65373844 599.92131145 470.4319458 617.63961792 C473.10107221 621.653514 475.78003214 625.66063913 478.46484375 629.6640625 C479.13330322 630.66195801 479.8017627 631.65985352 480.49047852 632.68798828 C481.70662012 634.50266881 482.92443492 636.31622966 484.14428711 638.12841797 C484.66128174 638.90072754 485.17827637 639.67303711 485.7109375 640.46875 C486.15743652 641.13326172 486.60393555 641.79777344 487.06396484 642.48242188 C488 644 488 644 488 645 C469.88475162 645.25720656 451.76997839 645.4510545 433.65329742 645.56993389 C425.24089953 645.62660477 416.82963745 645.70383198 408.41796875 645.82983398 C401.08441191 645.93963392 393.75167767 646.01047659 386.41732168 646.03497344 C382.53493478 646.04929007 378.65490057 646.08281097 374.77326965 646.16303062 C371.11499704 646.23801775 367.46003172 646.26067043 363.80106354 646.24418449 C361.82692616 646.24862812 359.85314512 646.30767227 357.87994385 646.36862183 C349.34484105 646.26007329 349.34484105 646.26007329 345.49479675 642.65270424 C343.42821913 639.85123372 341.69203408 637.03953553 340 634 C338.86338664 632.2349141 337.71885204 630.4748743 336.5625 628.72265625 C335.37278522 626.8373333 334.18541235 624.95053111 333 623.0625 C326.41217981 612.67446823 319.65345224 602.41038013 312.8125 592.1875 C303.76248119 578.65764826 294.7640785 565.09520142 285.8125 551.5 C285.20669098 550.58004242 284.60088196 549.66008484 283.97671509 548.71224976 C280.88576821 544.01817302 277.79549281 539.32365477 274.70556641 534.62890625 C268.64159302 525.41627381 262.57030518 516.20846093 256.5 507 C254.10018539 503.35942445 251.70044715 499.71879857 249.30078125 496.078125 C248.40758179 494.72300812 248.40758179 494.72300812 247.49633789 493.34051514 C243.73940646 487.64027793 239.98387995 481.93911745 236.22929382 476.23733521 C233.67381093 472.3566357 231.11786441 468.47624168 228.56185913 464.59588623 C227.32127408 462.712275 226.08089424 460.82852861 224.84072876 458.94464111 C219.12991074 450.26992495 213.4181579 441.59659227 207.625 432.9765625 C207.23254593 432.39189209 206.84009186 431.80722168 206.43574524 431.20483398 C204.70081135 428.62138173 202.96089623 426.04157634 201.21166992 423.46777344 C200.64037354 422.61989258 200.06907715 421.77201172 199.48046875 420.8984375 C198.99473389 420.18349121 198.50899902 419.46854492 198.00854492 418.73193359 C197 417 197 417 197 415 C172.58 415 148.16 415 123 415 C123 490.9 123 566.8 123 645 C82.41 645 41.82 645 0 645 C0 432.15 0 219.3 0 0 Z M123 113 C123 176.69 123 240.38 123 306 C148.4925 306.061875 148.4925 306.061875 174.5 306.125 C179.81544922 306.14320801 185.13089844 306.16141602 190.60742188 306.18017578 C195.47955195 306.18687511 195.47955195 306.18687511 200.35168457 306.19088745 C202.4789718 306.19390739 204.60625617 306.20083097 206.73352051 306.21115112 C247.4674145 306.39844292 288.66989973 302.6447402 319.7578125 273.40625 C336.48658226 256.01242212 343.11376129 232.76127036 343 209 C342.01286723 183.59295957 333.12171547 159.98842983 314.5234375 142.18359375 C290.83202498 121.68282037 259.1293853 112.78198199 228.23803711 112.88647461 C227.07722657 112.88635407 225.91641603 112.88623354 224.72042942 112.88610935 C220.98938089 112.8868515 217.25838327 112.8944478 213.52734375 112.90234375 C211.21325708 112.90381533 208.89917008 112.90483471 206.58508301 112.90539551 C198.03588357 112.91062334 189.48669128 112.92458461 180.9375 112.9375 C161.818125 112.958125 142.69875 112.97875 123 113 Z " fill="#00869F" transform="translate(4777,1658)"/>
<path d="M0 0 C0.8340033 -0.00979385 1.66800659 -0.01958771 2.52728271 -0.02967834 C20.71401207 -0.19924641 38.32346524 -0.12160249 56.09375 4.23828125 C56.97788574 4.44727051 57.86202148 4.65625977 58.77294922 4.87158203 C83.81447984 10.93551154 107.04033377 22.0277599 127.09375 38.23828125 C127.6192041 38.66222168 128.1446582 39.08616211 128.68603516 39.52294922 C173.66902839 76.04577701 198.81229517 130.24647702 208.40625 186.61328125 C208.62716309 187.90951416 208.62716309 187.90951416 208.85253906 189.23193359 C211.56809231 206.52053197 212.47631398 223.82150347 212.40625 241.30078125 C212.40409485 242.27829346 212.4019397 243.25580566 212.39971924 244.26293945 C212.15382711 314.14178578 190.48931075 381.69628915 140.47998047 431.85693359 C128.31347695 443.81728543 114.8901779 453.73964646 100.09375 462.23828125 C99.47338867 462.59631836 98.85302734 462.95435547 98.21386719 463.32324219 C69.19591665 479.89466218 37.02550753 487.69085636 3.71875 487.61328125 C2.3991478 487.61246552 2.3991478 487.61246552 1.05288696 487.6116333 C-44.42887426 487.48265386 -83.98731988 471.60753278 -116.90625 440.23828125 C-117.96779297 439.25601563 -117.96779297 439.25601563 -119.05078125 438.25390625 C-125.53030448 432.07790448 -130.21765554 425.47831056 -135.90625 418.23828125 C-136.23625 496.44828125 -136.56625 574.65828125 -136.90625 655.23828125 C-175.18625 655.23828125 -213.46625 655.23828125 -252.90625 655.23828125 C-252.90625 443.37828125 -252.90625 231.51828125 -252.90625 13.23828125 C-215.28625 13.23828125 -177.66625 13.23828125 -138.90625 13.23828125 C-138.57625 35.34828125 -138.24625 57.45828125 -137.90625 80.23828125 C-134.27625 75.61828125 -130.64625 70.99828125 -126.90625 66.23828125 C-123.29369407 62.15265251 -119.67874496 58.16352319 -115.90625 54.23828125 C-115.04725098 53.33843506 -115.04725098 53.33843506 -114.17089844 52.42041016 C-84.20956984 21.19142556 -43.93306271 0.42718219 0 0 Z M-106.37695312 147.87255859 C-131.85461145 177.54220041 -141.93736853 216.81471731 -139.45849609 255.34741211 C-138.58512982 266.56154174 -136.92177895 277.39966849 -133.90625 288.23828125 C-133.63772217 289.20918701 -133.63772217 289.20918701 -133.36376953 290.19970703 C-127.40380647 311.07818601 -116.21162001 329.93291124 -100.90625 345.23828125 C-100.019375 346.12515625 -99.1325 347.01203125 -98.21875 347.92578125 C-76.61958173 368.52033704 -47.47228771 377.06842031 -18.18359375 376.484375 C13.47468183 375.3334773 39.35573443 360.47882204 60.69873047 337.78125 C63.94051309 334.19565914 66.58215261 330.35705654 69.09375 326.23828125 C69.73699219 325.20445312 70.38023437 324.170625 71.04296875 323.10546875 C92.9401745 286.48499894 96.84749895 242.34114504 86.68261719 201.31542969 C78.61840468 170.93419934 60.54195474 142.51288052 33.09375 126.23828125 C-12.46503846 99.82184088 -70.96753694 108.52484413 -106.37695312 147.87255859 Z " fill="#00869F" transform="translate(3439.90625,1829.76171875)"/>
<path d="M0 0 C7.10764963 6.72073754 13.90109065 13.55084582 20.25244141 20.99462891 C21.04134766 21.89439453 21.83025391 22.79416016 22.64306641 23.72119141 C60.65128337 67.38839379 86.94951312 120.72964285 103.25244141 175.99462891 C103.54376953 176.97802246 103.83509766 177.96141602 104.13525391 178.97460938 C104.41111328 179.93898926 104.68697266 180.90336914 104.97119141 181.89697266 C105.21804688 182.75669678 105.46490234 183.6164209 105.71923828 184.50219727 C106.27839886 187.11596575 106.48717069 189.33135431 106.25244141 191.99462891 C102.40447735 195.85022782 97.36473217 198.55495832 92.75244141 201.43212891 C91.91640381 201.95653564 91.08036621 202.48094238 90.21899414 203.02124023 C87.56593521 204.68300844 84.90961644 206.33945167 82.25244141 207.99462891 C81.43146973 208.50703125 80.61049805 209.01943359 79.76464844 209.54736328 C73.60845502 213.38684187 67.4351916 217.19807838 61.25244141 220.99462891 C60.18316406 221.65124512 59.11388672 222.30786133 58.01220703 222.984375 C35.07954586 237.04232022 11.83180918 250.49771403 -11.66552734 263.59228516 C-15.63853756 265.80864689 -19.59913868 268.04471668 -23.54833984 270.30322266 C-36.49290242 277.70058952 -49.60758623 284.68921817 -62.86572266 291.50732422 C-67.04787695 293.66571832 -71.21054617 295.86023674 -75.37255859 298.05712891 C-78.49683411 299.70433981 -81.62200486 301.34984475 -84.74755859 302.99462891 C-85.57052429 303.42772369 -86.39348999 303.86081848 -87.24139404 304.30703735 C-101.55370535 311.82931151 -115.94362391 319.18585551 -130.40551758 326.41625977 C-133.73721952 328.08322684 -137.06564034 329.75663252 -140.39404297 331.43017578 C-142.5416344 332.50543518 -144.68941372 333.58031943 -146.83740234 334.65478516 C-147.81764877 335.14850113 -148.7978952 335.6422171 -149.80784607 336.15089417 C-155.03983212 338.75819741 -160.23151754 341.05583646 -165.74755859 342.99462891 C-165.84460083 342.09877075 -165.84460083 342.09877075 -165.94360352 341.18481445 C-168.75111201 315.97989481 -174.94603235 293.40108856 -186.73291016 270.93408203 C-187.70782034 269.07058672 -188.66295376 267.19813732 -189.61474609 265.32275391 C-199.55465344 245.96061562 -212.2226405 228.13269912 -224.70458984 210.35400391 C-232.13106 199.76311154 -239.37162098 189.11334107 -246.19677734 178.12353516 C-246.62748535 177.43646484 -247.05819336 176.74939453 -247.50195312 176.04150391 C-248.32935741 174.68184936 -249.12274615 173.30087977 -249.87988281 171.90087891 C-253.07646536 166.1927925 -256.96676954 163.25125516 -262.49755859 159.86962891 C-263.36735352 159.32322754 -264.23714844 158.77682617 -265.13330078 158.21386719 C-291.36322465 141.93689117 -318.4315341 128.70130368 -347.74755859 118.99462891 C-348.7159668 118.66978516 -349.684375 118.34494141 -350.68212891 118.01025391 C-419.71747642 95.20873134 -494.95997079 103.26615381 -559.43505859 135.68212891 C-562.21549661 137.10252709 -564.98381084 138.5418493 -567.74755859 139.99462891 C-569.00218968 136.23073564 -568.30916372 135.27699508 -566.79052734 131.68212891 C-566.11896606 130.08353027 -566.11896606 130.08353027 -565.43383789 128.45263672 C-564.69194214 126.74092285 -564.69194214 126.74092285 -563.93505859 124.99462891 C-563.42950439 123.8199707 -562.9239502 122.6453125 -562.40307617 121.43505859 C-548.71112322 90.04009754 -529.75912564 61.34554613 -506.74755859 35.99462891 C-506.19100586 35.3763623 -505.63445313 34.7580957 -505.06103516 34.12109375 C-493.24743568 21.03717853 -480.64787171 8.858821 -466.74755859 -2.00537109 C-466.15845703 -2.47233398 -465.56935547 -2.93929688 -464.96240234 -3.42041016 C-447.5767609 -17.17965265 -429.17805304 -29.33244285 -409.74755859 -40.00537109 C-408.87437988 -40.4871582 -408.00120117 -40.96894531 -407.1015625 -41.46533203 C-359.53725805 -67.51426698 -305.85355878 -83.78899124 -251.74755859 -88.00537109 C-251.07499023 -88.06176758 -250.40242188 -88.11816406 -249.70947266 -88.17626953 C-156.58529221 -95.7975705 -67.85969299 -63.75009765 0 0 Z " fill="#A0CD56" transform="translate(1236.74755859375,1598.00537109375)"/>
<path d="M0 0 C1.43416008 -0.00855011 1.43416008 -0.00855011 2.89729309 -0.01727295 C4.91678786 -0.0266721 6.93629762 -0.03323656 8.95581055 -0.03710938 C11.96627626 -0.04670525 14.97602527 -0.07773184 17.98632812 -0.109375 C35.18829162 -0.2035613 52.13149401 1.46143322 68.89453125 5.453125 C69.78897949 5.66291992 70.68342773 5.87271484 71.60498047 6.08886719 C124.87977857 19.03170157 170.89051506 51.35492853 199.65454102 98.24438477 C232.58388288 153.58046132 235.83203125 212.76685296 235.83203125 276.203125 C124.62203125 276.203125 13.41203125 276.203125 -101.16796875 276.203125 C-91.99007565 312.91469739 -79.41977808 343.69452404 -46.16796875 364.203125 C-16.75180759 381.492036 18.28545176 386.3487387 51.33203125 378.140625 C67.08822292 373.8854932 81.12636141 366.35472889 93.83203125 356.203125 C95.16621094 355.14351562 95.16621094 355.14351562 96.52734375 354.0625 C110.35037366 342.36275681 121.09098291 325.90920131 127.83203125 309.203125 C133.95196475 311.17280561 139.94039575 313.36227121 145.90234375 315.765625 C147.19122749 316.2815773 147.19122749 316.2815773 148.50614929 316.80795288 C151.32420759 317.93696204 154.14068077 319.06986302 156.95703125 320.203125 C158.93444024 320.99702883 160.91189881 321.79080919 162.8894043 322.58447266 C167.05024825 324.25525506 171.21023578 325.92814823 175.36962891 327.60253906 C179.71470904 329.35165462 184.06076038 331.09832126 188.40771484 332.84277344 C193.7877084 335.00185768 199.16623352 337.16455912 204.54364014 339.33007812 C206.59811352 340.15696272 208.65299978 340.98282229 210.70831299 341.80761719 C213.59072077 342.96484103 216.47134504 344.12639977 219.3515625 345.2890625 C220.61754524 345.79583023 220.61754524 345.79583023 221.90910339 346.31283569 C227.01864665 348.38191832 231.93092318 350.67830111 236.83203125 353.203125 C233.99494019 374.98325485 214.37334146 398.26048282 199.984375 413.86328125 C197.86486511 416.16743084 195.81767783 418.52307934 193.76953125 420.890625 C190.05949572 425.04992265 186.13502822 428.6680262 181.83203125 432.203125 C181.06874512 432.84290283 181.06874512 432.84290283 180.29003906 433.49560547 C140.01974492 467.18525706 87.64192359 487.17002391 34.9453125 487.40625 C33.92640427 487.41195007 32.90749603 487.41765015 31.85771179 487.42352295 C29.7071535 487.43291766 27.55658118 487.43948476 25.40600586 487.44335938 C22.19813079 487.45296451 18.99092567 487.48399991 15.78320312 487.515625 C-38.9925224 487.79659104 -95.7481311 469.88926692 -137.16796875 433.203125 C-138.36486328 432.16865234 -138.36486328 432.16865234 -139.5859375 431.11328125 C-186.39697019 389.95827159 -212.29911154 332.01907884 -217.16796875 270.203125 C-217.3180383 266.5127388 -217.35485897 262.82599333 -217.37109375 259.1328125 C-217.37679382 258.0940799 -217.3824939 257.05534729 -217.3883667 255.98513794 C-217.39776379 253.79169717 -217.40432947 251.59824263 -217.40820312 249.40478516 C-217.4178004 246.13547237 -217.4488301 242.86681914 -217.48046875 239.59765625 C-217.63008497 209.94201323 -212.47339296 181.32699896 -203.16796875 153.203125 C-202.83442383 152.19040527 -202.83442383 152.19040527 -202.49414062 151.15722656 C-191.86116339 119.52808683 -174.19706809 91.1967548 -151.16796875 67.203125 C-150.36552734 66.35983643 -150.36552734 66.35983643 -149.546875 65.49951172 C-111.39819196 25.59977769 -55.44606202 0.2645468 0 0 Z M-62.16796875 129.203125 C-79.69206105 147.82247307 -90.20171579 171.37186019 -95.16796875 196.203125 C-24.87796875 196.203125 45.41203125 196.203125 117.83203125 196.203125 C117.18353994 189.06972064 116.54286107 182.8057204 114.70703125 176.015625 C114.48966309 175.20609375 114.27229492 174.3965625 114.04833984 173.5625 C107.06928475 148.70052812 92.48144209 127.10467112 69.95703125 114.015625 C27.1661028 90.08054592 -26.20278684 95.68557352 -62.16796875 129.203125 Z " fill="#00869F" transform="translate(5517.16796875,1829.796875)"/>
<path d="M0 0 C1.43416008 -0.00855011 1.43416008 -0.00855011 2.89729309 -0.01727295 C4.91678786 -0.0266721 6.93629762 -0.03323656 8.95581055 -0.03710938 C11.96627626 -0.04670525 14.97602527 -0.07773184 17.98632812 -0.109375 C35.18829162 -0.2035613 52.13149401 1.46143322 68.89453125 5.453125 C69.78897949 5.66291992 70.68342773 5.87271484 71.60498047 6.08886719 C124.87977857 19.03170157 170.89051506 51.35492853 199.65454102 98.24438477 C232.58388288 153.58046132 235.83203125 212.76685296 235.83203125 276.203125 C124.62203125 276.203125 13.41203125 276.203125 -101.16796875 276.203125 C-91.99007565 312.91469739 -79.41977808 343.69452404 -46.16796875 364.203125 C-16.75180759 381.492036 18.28545176 386.3487387 51.33203125 378.140625 C67.08822292 373.8854932 81.12636141 366.35472889 93.83203125 356.203125 C95.16621094 355.14351562 95.16621094 355.14351562 96.52734375 354.0625 C110.35037366 342.36275681 121.09098291 325.90920131 127.83203125 309.203125 C133.95196475 311.17280561 139.94039575 313.36227121 145.90234375 315.765625 C147.19122749 316.2815773 147.19122749 316.2815773 148.50614929 316.80795288 C151.32420759 317.93696204 154.14068077 319.06986302 156.95703125 320.203125 C158.93444024 320.99702883 160.91189881 321.79080919 162.8894043 322.58447266 C167.05024825 324.25525506 171.21023578 325.92814823 175.36962891 327.60253906 C179.71470904 329.35165462 184.06076038 331.09832126 188.40771484 332.84277344 C193.7877084 335.00185768 199.16623352 337.16455912 204.54364014 339.33007812 C206.59811352 340.15696272 208.65299978 340.98282229 210.70831299 341.80761719 C213.59072077 342.96484103 216.47134504 344.12639977 219.3515625 345.2890625 C220.61754524 345.79583023 220.61754524 345.79583023 221.90910339 346.31283569 C227.01864665 348.38191832 231.93092318 350.67830111 236.83203125 353.203125 C233.99494019 374.98325485 214.37334146 398.26048282 199.984375 413.86328125 C197.86486511 416.16743084 195.81767783 418.52307934 193.76953125 420.890625 C190.05949572 425.04992265 186.13502822 428.6680262 181.83203125 432.203125 C181.06874512 432.84290283 181.06874512 432.84290283 180.29003906 433.49560547 C140.01974492 467.18525706 87.64192359 487.17002391 34.9453125 487.40625 C33.92640427 487.41195007 32.90749603 487.41765015 31.85771179 487.42352295 C29.7071535 487.43291766 27.55658118 487.43948476 25.40600586 487.44335938 C22.19813079 487.45296451 18.99092567 487.48399991 15.78320312 487.515625 C-38.9925224 487.79659104 -95.7481311 469.88926692 -137.16796875 433.203125 C-138.36486328 432.16865234 -138.36486328 432.16865234 -139.5859375 431.11328125 C-186.39697019 389.95827159 -212.29911154 332.01907884 -217.16796875 270.203125 C-217.3180383 266.5127388 -217.35485897 262.82599333 -217.37109375 259.1328125 C-217.37679382 258.0940799 -217.3824939 257.05534729 -217.3883667 255.98513794 C-217.39776379 253.79169717 -217.40432947 251.59824263 -217.40820312 249.40478516 C-217.4178004 246.13547237 -217.4488301 242.86681914 -217.48046875 239.59765625 C-217.63008497 209.94201323 -212.47339296 181.32699896 -203.16796875 153.203125 C-202.83442383 152.19040527 -202.83442383 152.19040527 -202.49414062 151.15722656 C-191.86116339 119.52808683 -174.19706809 91.1967548 -151.16796875 67.203125 C-150.36552734 66.35983643 -150.36552734 66.35983643 -149.546875 65.49951172 C-111.39819196 25.59977769 -55.44606202 0.2645468 0 0 Z M-62.16796875 129.203125 C-79.69206105 147.82247307 -90.20171579 171.37186019 -95.16796875 196.203125 C-24.87796875 196.203125 45.41203125 196.203125 117.83203125 196.203125 C117.18353994 189.06972064 116.54286107 182.8057204 114.70703125 176.015625 C114.48966309 175.20609375 114.27229492 174.3965625 114.04833984 173.5625 C107.06928475 148.70052812 92.48144209 127.10467112 69.95703125 114.015625 C27.1661028 90.08054592 -26.20278684 95.68557352 -62.16796875 129.203125 Z " fill="#00869F" transform="translate(3924.16796875,1829.796875)"/>
<path d="M0 0 C0.84110321 0.00215515 1.68220642 0.0043103 2.54879761 0.00653076 C14.69469422 0.05650734 26.47517381 0.34517026 38.3125 3.3125 C39.55193359 3.61051514 39.55193359 3.61051514 40.81640625 3.91455078 C79.94033024 13.52987452 113.66192242 36.5858636 134.73828125 71.24609375 C155.91415955 107.16294852 161.83787312 146.50378903 161.66069686 187.61305106 C161.64752315 191.46203355 161.65214072 195.31100491 161.65440369 199.16000366 C161.6559632 205.80037551 161.64669416 212.4406577 161.62969017 219.081007 C161.6051227 228.68136722 161.59747694 238.28168488 161.5937262 247.88207311 C161.58718925 263.46478218 161.56730366 279.04744366 161.53881836 294.63012695 C161.5112059 309.75121831 161.49000768 324.87229666 161.47729492 339.9934082 C161.47650675 340.92826917 161.47571858 341.86313014 161.47490653 342.82632022 C161.47099091 347.517078 161.46719991 352.20783586 161.46347082 356.89859378 C161.43246092 395.70327148 161.37720482 434.50786098 161.3125 473.3125 C123.0325 473.3125 84.7525 473.3125 45.3125 473.3125 C45.27511719 455.06195312 45.23773438 436.81140625 45.19921875 418.0078125 C45.16892653 406.41405543 45.13790826 394.82030706 45.10351562 383.2265625 C45.08546984 377.13053449 45.06760653 371.03450599 45.05004883 364.93847656 C45.0467373 363.79267333 45.0467373 363.79267333 45.04335886 362.62372255 C45.00814354 350.34731981 44.98319833 338.07091712 44.96215298 325.79448284 C44.94026643 313.16303877 44.90709639 300.53165931 44.86379844 287.90027034 C44.83750101 280.12776749 44.81964522 272.35534488 44.81315396 264.58279984 C44.80719616 258.58795338 44.78541829 252.59326244 44.75822449 246.59847069 C44.74954224 244.16476773 44.74570087 241.73104102 44.74749184 239.29732323 C44.76497908 204.5208356 41.97883052 167.04290765 20.3125 138.3125 C19.57 137.260625 18.8275 136.20875 18.0625 135.125 C3.26489127 119.99108198 -16.56745319 112.40590016 -37.55029297 112.07104492 C-64.98103436 111.97774308 -88.93985809 120.22836583 -109.125 139.3125 C-132.84399952 163.62862119 -140.81166574 199.1810829 -140.84571838 232.20219421 C-140.85065636 233.24064808 -140.85559434 234.27910195 -140.86068195 235.34902412 C-140.87592981 238.79737853 -140.88438277 242.24571452 -140.89282227 245.6940918 C-140.90241081 248.17844299 -140.91242145 250.66279258 -140.92282104 253.1471405 C-140.94419923 258.47972262 -140.96266356 263.81230241 -140.97842598 269.14490318 C-141.00122039 276.85477427 -141.02934945 284.5646188 -141.05874526 292.27446721 C-141.1063045 304.78574956 -141.14959995 317.29704284 -141.19018555 329.80834961 C-141.22960008 341.95581919 -141.27105137 354.10327904 -141.31518555 366.25073242 C-141.31793505 367.00819521 -141.32068456 367.765658 -141.32351738 368.54607421 C-141.34503884 374.47067564 -141.36667773 380.39527664 -141.38835371 386.31987751 C-141.49441514 415.31739866 -141.59024138 444.31494541 -141.6875 473.3125 C-179.9675 473.3125 -218.2475 473.3125 -257.6875 473.3125 C-257.6875 321.5125 -257.6875 169.7125 -257.6875 13.3125 C-220.0675 13.3125 -182.4475 13.3125 -143.6875 13.3125 C-143.3575 35.0925 -143.0275 56.8725 -142.6875 79.3125 C-138.7275 73.7025 -134.7675 68.0925 -130.6875 62.3125 C-127.39526077 58.56087855 -124.11373663 54.92360551 -120.6875 51.3125 C-119.63668468 50.07018095 -118.5937691 48.82109186 -117.5625 47.5625 C-114.28194296 43.71852319 -110.59061197 40.51124243 -106.6875 37.3125 C-105.78515625 36.56097656 -104.8828125 35.80945312 -103.953125 35.03515625 C-74.10212867 11.05586605 -38.02830231 -0.17524347 0 0 Z " fill="#00869F" transform="translate(4503.6875,1829.6875)"/>
<path d="M0 0 C0.93227417 0.00304138 1.86454834 0.00608276 2.82507324 0.00921631 C27.94371617 0.12976779 53.42986843 3.03444737 76.9375 12.4375 C76.9375 44.7775 76.9375 77.1175 76.9375 110.4375 C72.18826477 109.64596079 68.46821599 108.66348944 64 107.0625 C40.18961367 98.8959087 12.40285755 97.1061482 -11.0625 107.4375 C-23.97320653 113.84382527 -31.19361185 124.06327287 -36.0625 137.4375 C-42.97549275 162.25406381 -40.58908101 189.34629328 -41.0625 214.4375 C-5.7525 214.4375 29.5575 214.4375 65.9375 214.4375 C65.9375 249.0875 65.9375 283.7375 65.9375 319.4375 C30.6275 319.4375 -4.6825 319.4375 -41.0625 319.4375 C-41.0625 436.5875 -41.0625 553.7375 -41.0625 674.4375 C-79.3425 674.4375 -117.6225 674.4375 -157.0625 674.4375 C-157.0625 557.2875 -157.0625 440.1375 -157.0625 319.4375 C-179.8325 319.4375 -202.6025 319.4375 -226.0625 319.4375 C-226.0625 284.7875 -226.0625 250.1375 -226.0625 214.4375 C-203.2925 214.4375 -180.5225 214.4375 -157.0625 214.4375 C-157.21955778 192.61636691 -157.21955778 192.61636691 -157.42285156 170.7956543 C-157.72425692 121.9254274 -147.13777174 75.78723425 -112.5625 39.5625 C-82.24575666 10.62128948 -40.9992658 -0.28621261 0 0 Z " fill="#00869F" transform="translate(6024.0625,1628.5625)"/>
<path d="M0 0 C0.55977539 0.40573242 1.11955078 0.81146484 1.69628906 1.22949219 C9.39321897 6.84954349 16.58616384 12.95385756 23.47314453 19.54052734 C24.50315775 20.52508427 25.53812459 21.5044814 26.57763672 22.47900391 C40.45029672 35.5165205 51.43508286 50.58685334 61 67 C61.35400879 67.5995752 61.70801758 68.19915039 62.07275391 68.81689453 C70.94579577 84.00224586 77.23799858 100.6660036 80.59423828 117.92724609 C81.00324948 120.01659932 81.45266153 122.09485138 81.90234375 124.17578125 C83.74144476 133.22403463 84.32883047 142.14604174 84.4375 151.375 C84.45973633 152.46361328 84.48197266 153.55222656 84.50488281 154.67382812 C84.50198242 155.69669922 84.49908203 156.71957031 84.49609375 157.7734375 C84.49794678 158.68528809 84.4997998 159.59713867 84.50170898 160.53662109 C83.5263732 165.32549605 79.29337061 167.61480215 75.4375 170.1875 C64.85654996 177.53282619 56.01201986 185.90006534 46.98632812 195.04760742 C42.02867533 200.04709903 37.07113873 204.72551457 31.5078125 209.046875 C28.73069463 211.20973938 26.09761521 213.50755003 23.4375 215.8125 C-2.75478021 237.59451195 -34.34161783 252.84372299 -67 262 C-68.28656494 262.36134033 -68.28656494 262.36134033 -69.59912109 262.72998047 C-125.01222543 277.90775719 -183.52066418 269.65723318 -233.43945312 241.63037109 C-238.07273797 238.91951437 -242.56391901 236.02095658 -247 233 C-247.63486328 232.56961426 -248.26972656 232.13922852 -248.92382812 231.69580078 C-252.64155223 229.16636034 -256.33154158 226.60058525 -260 224 C-260.25007812 224.90621094 -260.50015625 225.81242187 -260.7578125 226.74609375 C-263.38644103 233.63177793 -269.82265018 237.75628704 -276.3125 240.8125 C-290.16275597 245.93069696 -304.71437863 246.26423523 -319.3125 246.25 C-320.31295349 246.24910873 -320.31295349 246.24910873 -321.33361816 246.24819946 C-329.60420165 246.22008121 -337.80505269 245.8475007 -346.05200195 245.24951172 C-353.50621233 244.77840894 -360.97175979 244.62733979 -368.4375 244.4375 C-370.05534584 244.3941518 -371.67318447 244.35053337 -373.29101562 244.30664062 C-377.19393462 244.20132599 -381.09693164 244.09961873 -385 244 C-384.56698906 234.36207361 -383.3139003 225.3878906 -381.0625 216 C-380.91205231 215.36536835 -380.76160461 214.73073669 -380.6065979 214.07687378 C-375.07846839 190.91651693 -367.17290284 168.53208477 -357 147 C-356.30801514 145.52756836 -356.30801514 145.52756836 -355.60205078 144.02539062 C-341.81656693 114.95123099 -324.15618973 87.17697707 -302.265625 63.4765625 C-300.4079748 61.44595866 -298.60758511 59.38597326 -296.8125 57.30078125 C-287.39372083 46.51273007 -277.08732466 35.937919 -265.76171875 27.14453125 C-263.63520138 25.4932469 -261.57325743 23.8123278 -259.51953125 22.07421875 C-188.48041891 -37.71036209 -85.62873706 -59.02042193 0 0 Z " fill="#A0CD56" transform="translate(917,1794)"/>
<path d="M0 0 C3.70372861 17.58417489 7.20874351 35.09729527 9 53 C9.0942627 53.91249512 9.18852539 54.82499023 9.28564453 55.76513672 C17.75044262 149.18077072 -11.05448662 244.73183858 -71 317 C-73.21127453 319.54136848 -75.44876079 322.04885519 -77.734375 324.5234375 C-79.57263829 326.53284944 -81.35107105 328.57138838 -83.125 330.63671875 C-87.61836448 335.7833142 -92.42235485 340.6063717 -97.25 345.4375 C-98.12785156 346.32759766 -99.00570313 347.21769531 -99.91015625 348.13476562 C-105.95866492 354.19655799 -112.29612005 359.67862467 -119 365 C-120.26621228 366.03675927 -121.53078341 367.07552946 -122.79296875 368.1171875 C-167.31012696 404.4410825 -221.4128554 428.89263829 -277.6875 439.875 C-278.66428711 440.06602295 -279.64107422 440.2570459 -280.64746094 440.45385742 C-295.86104081 443.25215102 -310.91467575 444.333763 -326.3684082 444.26074219 C-329.06419269 444.24999325 -331.7593132 444.2607297 -334.45507812 444.2734375 C-373.55643626 444.30776725 -412.20837725 433.76344909 -446 414 C-444.73637465 411.47274931 -443.89267331 411.36280013 -441.30859375 410.3359375 C-440.15097534 409.86619507 -440.15097534 409.86619507 -438.9699707 409.38696289 C-438.13425537 409.05301514 -437.29854004 408.71906738 -436.4375 408.375 C-427.39026293 404.6577601 -418.64429914 400.57255118 -410 396 C-409.36030273 395.66419922 -408.72060547 395.32839844 -408.06152344 394.98242188 C-389.1490227 384.97048025 -372.10239768 372.51741829 -356.32421875 358.1015625 C-354.29434985 356.26615163 -352.2229064 354.50618556 -350.125 352.75 C-304.53747242 312.73529643 -278.01772008 247.4254414 -274 188 C-273.39459535 176.01038468 -273.1813976 164.00230741 -273 152 C-264.77817244 147.88534865 -256.55347409 143.77648429 -248.32586861 139.67339706 C-243.02338626 137.02897379 -237.72171545 134.38292715 -232.42042351 131.73611832 C-228.96204855 130.00953212 -225.50329885 128.28370537 -222.04370117 126.55957031 C-194.04601152 112.64535841 -194.04601152 112.64535841 -166.5625 97.75 C-161.75790812 95.05341759 -156.94989609 92.42388309 -152 90 C-144.72946375 86.42920457 -137.69884082 82.44302818 -130.63867188 78.47753906 C-127.84187408 76.91145651 -125.03864392 75.35734932 -122.234375 73.8046875 C-107.80644907 65.79856 -93.57738098 57.49236132 -79.41162109 49.03222656 C-76.01564671 47.0093204 -72.61273855 44.99865831 -69.20703125 42.9921875 C-50.35073552 31.87859862 -31.59329516 20.5991632 -13.1875 8.75 C-12.51831543 8.32033936 -11.84913086 7.89067871 -11.15966797 7.44799805 C-8.36133753 5.62868068 -3.19869609 0 0 0 Z " fill="#4EAA9E" transform="translate(1344,1789)"/>
<path d="M0 0 C5.19165978 -0.09096354 10.3747669 -0.05716052 15.56591797 0.05029297 C16.92330078 0.07712158 16.92330078 0.07712158 18.30810547 0.10449219 C92.26440949 1.78420267 165.66610118 17.28890541 234.56591797 44.05029297 C234.56591797 44.38029297 234.56591797 44.71029297 234.56591797 45.05029297 C233.87481934 45.17033691 233.1837207 45.29038086 232.47167969 45.4140625 C172.1701127 55.93097238 114.17868847 71.16772651 58.56591797 97.05029297 C57.51887695 97.5346582 56.47183594 98.01902344 55.39306641 98.51806641 C32.05759348 109.35678902 9.41353372 121.45659855 -12.43408203 135.05029297 C-13.3311084 135.60716797 -14.22813477 136.16404297 -15.15234375 136.73779297 C-27.53660531 144.45293176 -39.63236538 152.47186978 -51.43408203 161.05029297 C-52.19817383 161.60185059 -52.96226562 162.1534082 -53.74951172 162.72167969 C-64.35979894 170.38850973 -74.6675321 178.33580053 -84.7578125 186.67382812 C-87.00171515 188.51640359 -89.27929201 190.31490978 -91.55908203 192.11279297 C-100.77798541 199.47554131 -109.65898992 207.24156412 -118.31420898 215.2565918 C-120.99864268 217.7424126 -123.71450851 220.17452633 -126.49658203 222.55029297 C-130.73090416 226.2124094 -134.61963083 230.20416824 -138.52783203 234.20654297 C-140.69464715 236.3822148 -142.96485592 238.38969262 -145.29736328 240.38623047 C-149.53607523 244.05717732 -153.33321696 248.04749663 -157.12158203 252.17529297 C-158.99820003 254.20560769 -160.87593303 256.2339212 -162.77148438 258.24658203 C-164.21973781 259.81775624 -165.59396163 261.4565346 -166.95361328 263.10498047 C-169.43408203 265.05029297 -169.43408203 265.05029297 -172.55517578 265.12060547 C-177.6959433 263.93757786 -182.59976355 261.85022475 -187.49658203 259.92529297 C-248.20195141 236.72335454 -313.95178756 227.18041079 -378.72460938 233.78125 C-381.27864344 234.03485836 -383.83254529 234.25068508 -386.39111328 234.45263672 C-401.22164326 235.68236807 -415.80700227 238.37341332 -430.43408203 241.05029297 C-431.37654785 241.22270508 -432.31901367 241.39511719 -433.29003906 241.57275391 C-437.6751976 242.37920057 -442.05671532 243.20239359 -446.43408203 244.05029297 C-432.4297701 206.65946997 -396.82242087 168.57770334 -366.72314453 142.99951172 C-364.86500674 141.4172408 -363.03287653 139.81439656 -361.20751953 138.19482422 C-351.95067517 130.01519893 -342.35712528 122.40411417 -332.43408203 115.05029297 C-331.69754395 114.5034082 -330.96100586 113.95652344 -330.20214844 113.39306641 C-258.46861538 60.33673338 -174.03739451 22.54035279 0 0 Z " fill="#F3F4EB" transform="translate(1357.43408203125,1203.94970703125)"/>
<path d="M0 0 C38.28 0 76.56 0 116 0 C116 217.8 116 435.6 116 660 C77.72 660 39.44 660 0 660 C0 442.2 0 224.4 0 0 Z " fill="#00869F" transform="translate(6613,1643)"/>
<path d="M0 0 C38.28 0 76.56 0 116 0 C116 217.8 116 435.6 116 660 C77.72 660 39.44 660 0 660 C0 442.2 0 224.4 0 0 Z " fill="#00869F" transform="translate(6384,1643)"/>
<path d="M0 0 C0 3 0 3 -2.01953125 5.171875 C-2.94121094 6.02265625 -3.86289063 6.8734375 -4.8125 7.75 C-18.74348966 21.23805793 -27.60442727 38.22425546 -37 55 C-37.60811523 56.08265137 -38.21623047 57.16530273 -38.84277344 58.28076172 C-41.79093733 63.53053436 -44.73045333 68.78505125 -47.6640625 74.04296875 C-51.24673031 80.45476577 -54.88837117 86.83185435 -58.54077148 93.20410156 C-62.13457219 99.47678789 -65.69848112 105.76578816 -69.25 112.0625 C-74.4496263 121.28009078 -79.69608636 130.47037762 -84.95623779 139.65350342 C-89.81370503 148.13666786 -94.61353466 156.6499481 -99.375 165.1875 C-123.49623397 208.32182292 -123.49623397 208.32182292 -143.3125 224.125 C-143.88701904 224.58656494 -144.46153809 225.04812988 -145.0534668 225.52368164 C-148.56200917 228.22385097 -151.56286666 230.50206733 -156 231 C-159.23002497 229.59034252 -161.96354188 227.55568535 -164.8125 225.5 C-166.6010312 224.27733742 -168.39421864 223.06146511 -170.19140625 221.8515625 C-171.1364502 221.21508789 -172.08149414 220.57861328 -173.05517578 219.92285156 C-196.88983344 204.35978045 -223.05215696 192.92255866 -250 184 C-250.9684082 183.67515625 -251.93681641 183.3503125 -252.93457031 183.015625 C-321.96991782 160.21410244 -397.2124122 168.27152491 -461.6875 200.6875 C-464.46793802 202.10789819 -467.23625225 203.54722039 -470 205 C-471.25463109 201.23610673 -470.56160513 200.28236618 -469.04296875 196.6875 C-468.37140747 195.08890137 -468.37140747 195.08890137 -467.6862793 193.45800781 C-466.94438354 191.74629395 -466.94438354 191.74629395 -466.1875 190 C-465.6819458 188.8253418 -465.1763916 187.65068359 -464.65551758 186.44042969 C-450.96356463 155.04546864 -432.01156704 126.35091722 -409 101 C-408.44344727 100.3817334 -407.88689453 99.7634668 -407.31347656 99.12646484 C-395.49987709 86.04254963 -382.90031311 73.86419209 -369 63 C-368.41089844 62.53303711 -367.82179688 62.06607422 -367.21484375 61.58496094 C-349.82920231 47.82571844 -331.43049445 35.67292824 -312 25 C-311.12682129 24.51821289 -310.25364258 24.03642578 -309.35400391 23.54003906 C-261.78969946 -2.50889589 -208.10600019 -18.78362014 -154 -23 C-153.32743164 -23.05639648 -152.65486328 -23.11279297 -151.96191406 -23.17089844 C-100.19286431 -27.4076875 -48.07658997 -19.46442658 0 0 Z " fill="#F3F4EB" transform="translate(1139,1533)"/>
<path d="M0 0 C38.28 0 76.56 0 116 0 C116 151.8 116 303.6 116 460 C77.72 460 39.44 460 0 460 C0 308.2 0 156.4 0 0 Z " fill="#00869F" transform="translate(6156,1843)"/>
<path d="M0 0 C-2.80918802 1.87279201 -4.61005789 2.58006273 -7.8046875 3.4453125 C-8.76955078 3.71311523 -9.73441406 3.98091797 -10.72851562 4.25683594 C-11.76685547 4.54333008 -12.80519531 4.82982422 -13.875 5.125 C-62.35570754 18.94969009 -106.39558974 44.5938732 -144 78 C-144.73629639 78.6487207 -145.47259277 79.29744141 -146.23120117 79.96582031 C-152.37287526 85.42427354 -158.27889327 91.09262691 -164.08666992 96.90136719 C-165.55955972 98.3720641 -167.04030265 99.83453534 -168.52148438 101.296875 C-174.79068862 107.52963872 -180.49500448 114.07854342 -186 121 C-186.86335829 122.02757521 -187.73174922 123.05098942 -188.609375 124.06640625 C-214.22729583 153.93839787 -233.75233511 189.34894289 -248.31347656 225.78588867 C-252.29247968 235.58510392 -257.55493919 242.14973511 -267.1875 246.6875 C-281.05177933 251.96102956 -295.65590707 252.26429225 -310.3125 252.25 C-311.31295349 252.24910873 -311.31295349 252.24910873 -312.33361816 252.24819946 C-320.60420165 252.22008121 -328.80505269 251.8475007 -337.05200195 251.24951172 C-344.50621233 250.77840894 -351.97175979 250.62733979 -359.4375 250.4375 C-361.05534584 250.3941518 -362.67318447 250.35053337 -364.29101562 250.30664062 C-368.19393462 250.20132599 -372.09693164 250.09961873 -376 250 C-375.56698906 240.36207361 -374.3139003 231.3878906 -372.0625 222 C-371.91205231 221.36536835 -371.76160461 220.73073669 -371.6065979 220.07687378 C-366.07846839 196.91651693 -358.17290284 174.53208477 -348 153 C-347.30801514 151.52756836 -347.30801514 151.52756836 -346.60205078 150.02539062 C-332.81656693 120.95123099 -315.15618973 93.17697707 -293.265625 69.4765625 C-291.4079748 67.44595866 -289.60758511 65.38597326 -287.8125 63.30078125 C-278.39372083 52.51273007 -268.08732466 41.937919 -256.76171875 33.14453125 C-254.63520138 31.4932469 -252.57325743 29.8123278 -250.51953125 28.07421875 C-182.43922912 -29.22030805 -78.08365823 -54.78656676 0 0 Z " fill="#F3F4EB" transform="translate(908,1788)"/>
<path d="M0 0 C0.33 0 0.66 0 1 0 C3.45473158 19.4351946 3.60351357 40.88385735 -1 60 C-1.18804199 60.78810059 -1.37608398 61.57620117 -1.56982422 62.38818359 C-7.63649737 86.77553397 -19.65386662 108.07289819 -36 127 C-37.01900391 128.20269531 -37.01900391 128.20269531 -38.05859375 129.4296875 C-42.37038339 134.42228603 -46.89701798 138.82636901 -52 143 C-52.98484375 143.82242188 -53.9696875 144.64484375 -54.984375 145.4921875 C-80.64442413 166.55397402 -111.28331562 179.71933987 -144 185 C-144.721875 185.11714355 -145.44375 185.23428711 -146.1875 185.35498047 C-218.62079704 196.23614317 -300.62098016 178.1335158 -367 149 C-367.9801709 148.57283691 -368.9603418 148.14567383 -369.97021484 147.70556641 C-406.33387399 131.73087601 -441.36631943 110.91896804 -469 82 C-468.67 81.01 -468.34 80.02 -468 79 C-468 79.66 -468 80.32 -468 81 C-466.52744751 80.99214478 -466.52744751 80.99214478 -465.02514648 80.98413086 C-461.30689442 80.96573262 -457.58864616 80.95444376 -453.87036133 80.94506836 C-452.27530231 80.94010631 -450.68024768 80.93333452 -449.08520508 80.92456055 C-439.90205138 80.87539091 -430.8335435 81.07643112 -421.66967773 81.76196289 C-415.22179581 82.18021084 -408.77223626 82.24424527 -402.3125 82.25 C-401.62055542 82.25067474 -400.92861084 82.25134949 -400.21569824 82.25204468 C-382.04642697 82.22409758 -361.54999559 82.045448 -347.55859375 68.78125 C-345.47781378 66.40321575 -344.14514791 63.93444153 -343 61 C-339.21244532 62.34310449 -336.41542707 64.04024138 -333.25 66.5 C-288.98257479 99.19887142 -231.58222057 111.85311626 -177.43359375 104.10546875 C-131.61322613 96.70823653 -89.37932571 76.87587505 -54 47 C-52.95882965 46.14522843 -51.91714125 45.29108758 -50.875 44.4375 C-43.6558756 38.45499962 -37.00568513 32.06555345 -30.4375 25.375 C-23.37912407 18.19564344 -16.28780575 11.73230129 -8 6 C-6.40091797 4.88431641 -6.40091797 4.88431641 -4.76953125 3.74609375 C-2 2 -2 2 0 2 C0 1.34 0 0.68 0 0 Z " fill="#4FAB9E" transform="translate(1000,1957)"/>
<path d="M0 0 C17.60588625 -0.47964754 35.45170888 4.68040152 48.8125 16.37109375 C50.45402131 17.93729209 52.07928673 19.52071269 53.6875 21.12109375 C54.4609375 21.85972656 55.234375 22.59835937 56.03125 23.359375 C60.69959567 28.11565184 64.0512305 33.09896593 67.0625 38.99609375 C67.38428223 39.61943604 67.70606445 40.24277832 68.03759766 40.88500977 C72.74256388 50.64700605 74.23231437 60.6828737 74.125 71.43359375 C74.11597656 72.52663818 74.10695312 73.61968262 74.09765625 74.74584961 C73.71943857 92.48136951 67.64420536 110.06848064 55.01953125 122.88671875 C54.24996094 123.6240625 53.48039062 124.36140625 52.6875 125.12109375 C51.92824219 125.8996875 51.16898438 126.67828125 50.38671875 127.48046875 C36.88323066 140.65244731 19.21837087 145.37925777 0.79052734 145.36987305 C-17.63304597 145.1118762 -34.99972886 138.20834745 -48.4375 125.55859375 C-64.40420189 108.77959542 -70.05919215 88.37442403 -69.6171875 65.60546875 C-68.83732804 46.85017107 -59.84918638 30.6961576 -46.3125 18.12109375 C-32.87403412 6.85980949 -17.49197268 0.91596479 0 0 Z " fill="#00869F" transform="translate(6211.3125,1628.87890625)"/>
<path d="M0 0 C11.02269408 8.51753633 17.41519343 20.53417069 19.75 34.125 C21.4649976 50.39117359 18.30767447 64.64052904 8.75 78.125 C8.32332031 78.74632812 7.89664063 79.36765625 7.45703125 80.0078125 C0.01238386 89.74479999 -11.65717834 94.97679459 -23.25 97.875 C-37.685966 99.07799717 -49.63859173 96.7129539 -61.1796875 87.6015625 C-70.77348488 78.86054711 -75.53235888 66.9788973 -76.5625 54.26953125 C-77.21337827 39.27040312 -72.65217998 25.94193111 -62.9609375 14.3984375 C-47.27366278 -2.08565118 -21.17095303 -12.21401137 0 0 Z " fill="#00869F" transform="translate(2305.25,1893.875)"/>
<path d="M0 0 C9.77547471 7.50941712 17.36080446 19.83411998 19.15625 32.16015625 C20.06144511 47.6877339 15.58461979 61.08530335 5.5 72.890625 C-4.27523318 83.31491793 -17.44613892 89.00503553 -31.6640625 89.9765625 C-46.30821236 90.19872407 -60.05173817 86.7307521 -71.06640625 76.58984375 C-80.11074671 66.48018434 -83.35878779 55.96270799 -83.03515625 42.5859375 C-82.08088883 32.00224429 -78.28926682 23.96989865 -71.69140625 15.7734375 C-71.22992187 15.14953125 -70.7684375 14.525625 -70.29296875 13.8828125 C-54.4215418 -6.48398972 -22.05845276 -14.47034501 0 0 Z " fill="#00869F" transform="translate(2172.69140625,1917.2265625)"/>
</svg>
